<svg width="98" height="35" viewBox="0 0 98 35" fill="none" xmlns="http://www.w3.org/2000/svg">
<g clip-path="url(#clip0_5261_1834270)">
<path d="M56.7944 29.7645C56.7428 29.764 56.6914 29.7591 56.6406 29.75C56.6914 29.759 56.7428 29.7639 56.7944 29.7645Z" fill="#168CCC"/>
<path d="M56.5932 29.7396C56.5551 29.7312 56.5176 29.7204 56.481 29.707C56.5176 29.7203 56.5551 29.7312 56.5932 29.7396Z" fill="#168CCC"/>
<path d="M56.4336 29.6894C56.383 29.6687 56.3345 29.6436 56.2886 29.6143C56.3346 29.6434 56.3831 29.6686 56.4336 29.6894Z" fill="#168CCC"/>
<path d="M56.127 29.477C56.1004 29.4491 56.0756 29.4196 56.0527 29.3887C56.0756 29.4196 56.1004 29.4491 56.127 29.477Z" fill="#168CCC"/>
<path d="M56.0238 29.3474C56.001 29.3121 55.9807 29.2753 55.9629 29.2373C55.9807 29.2753 56.001 29.3121 56.0238 29.3474Z" fill="#168CCC"/>
<path d="M57.4667 29.4785C57.4561 29.49 57.4452 29.5014 57.4336 29.5125C57.4452 29.5014 57.4561 29.49 57.4667 29.4785Z" fill="#168CCC"/>
<path d="M57.5703 29.3486C57.5615 29.3621 57.5516 29.3746 57.5425 29.3874C57.5516 29.3746 57.5615 29.3621 57.5703 29.3486Z" fill="#168CCC"/>
<path d="M57.0009 29.7402C56.9854 29.7437 56.9699 29.7475 56.9541 29.7503C56.9696 29.7475 56.9851 29.7437 57.0009 29.7402Z" fill="#168CCC"/>
<path d="M57.6477 29.2061C57.6427 29.2168 57.6371 29.2269 57.6318 29.2372C57.6371 29.2269 57.6427 29.2168 57.6477 29.2061Z" fill="#168CCC"/>
<path d="M57.3117 29.6104L57.3071 29.6138L57.3117 29.6104Z" fill="#168CCC"/>
<path d="M57.1426 29.6994C57.1489 29.6966 57.1535 29.6928 57.1598 29.6904C57.145 29.6966 57.1299 29.7018 57.1147 29.7074C57.1239 29.7043 57.1334 29.7029 57.1426 29.6994Z" fill="#168CCC"/>
<path d="M56.2805 29.6086C56.2381 29.5799 56.1982 29.5478 56.1611 29.5127C56.1981 29.5479 56.238 29.58 56.2805 29.6086Z" fill="#168CCC"/>
<path d="M55.9427 28.5179L56.7972 26.4366L54.6066 21.1026C54.5614 20.992 54.4945 20.8913 54.4097 20.8061C54.3249 20.721 54.2238 20.6532 54.1123 20.6065C54.0009 20.5599 53.8811 20.5353 53.76 20.5342C53.6388 20.5331 53.5187 20.5556 53.4063 20.6002C53.294 20.6449 53.1917 20.7109 53.1054 20.7945C53.019 20.8781 52.9502 20.9776 52.903 21.0874C52.8558 21.1972 52.831 21.315 52.8301 21.4342C52.8292 21.5534 52.8522 21.6716 52.8978 21.7821L55.9427 29.1974L55.9458 29.2029C55.853 28.9839 55.8519 28.7377 55.9427 28.5179Z" fill="#FAA51C"/>
<path d="M55.963 29.2379C55.9577 29.2272 55.9517 29.2171 55.9468 29.2061C55.9517 29.2171 55.9577 29.2272 55.963 29.2379Z" fill="#168CCC"/>
<path d="M56.0528 29.3885C56.0433 29.375 56.0327 29.3619 56.0239 29.3477C56.0327 29.3619 56.0429 29.375 56.0528 29.3885Z" fill="#168CCC"/>
<path d="M59.0454 20.9944C59.0563 20.975 59.0648 20.9549 59.0771 20.9365C59.0651 20.9545 59.0563 20.9753 59.0454 20.9944Z" fill="#168CCC"/>
<path d="M56.954 29.75C56.9031 29.7591 56.8515 29.764 56.7998 29.7646C56.8515 29.7639 56.9031 29.759 56.954 29.75Z" fill="#168CCC"/>
<path d="M59.1221 20.8829C59.1433 20.8542 59.1662 20.8268 59.1907 20.8008C59.166 20.8266 59.1431 20.8541 59.1221 20.8829Z" fill="#168CCC"/>
<path d="M56.2888 29.6146L56.2808 29.6084C56.2832 29.6107 56.2859 29.6128 56.2888 29.6146Z" fill="#168CCC"/>
<path d="M60.4585 20.7725C60.4698 20.7825 60.4828 20.7905 60.4937 20.8012C60.4828 20.7908 60.4694 20.7825 60.4585 20.7725Z" fill="#168CCC"/>
<path d="M56.4519 29.6988C56.4614 29.7026 56.4713 29.704 56.4808 29.7071C56.4649 29.7016 56.4491 29.696 56.4336 29.6895C56.4395 29.693 56.4456 29.6961 56.4519 29.6988Z" fill="#168CCC"/>
<path d="M56.6404 29.7506C56.6246 29.7478 56.6087 29.7437 56.5933 29.7402C56.6091 29.7437 56.6246 29.7478 56.6404 29.7506Z" fill="#168CCC"/>
<path d="M60.6357 20.9893C60.6573 21.0233 60.6764 21.0588 60.6928 21.0956C60.6762 21.0589 60.6572 21.0234 60.6357 20.9893Z" fill="#168CCC"/>
<path d="M56.1614 29.5119C56.1495 29.5008 56.1386 29.4887 56.127 29.4766C56.1386 29.489 56.1495 29.5008 56.1614 29.5119Z" fill="#168CCC"/>
<path d="M60.5469 20.8652C60.5683 20.8884 60.5883 20.9127 60.607 20.938C60.5884 20.9127 60.5683 20.8884 60.5469 20.8652Z" fill="#168CCC"/>
<path d="M59.9424 20.5449C59.9677 20.5477 59.9938 20.5488 60.0191 20.5536C59.9938 20.5488 59.9681 20.5477 59.9424 20.5449Z" fill="#168CCC"/>
<path d="M57.4337 29.5117C57.3959 29.5479 57.3551 29.5808 57.3115 29.6101C57.355 29.5808 57.3959 29.5479 57.4337 29.5117Z" fill="#168CCC"/>
<path d="M57.5428 29.3877C57.5196 29.4196 57.4942 29.4499 57.4668 29.4784C57.4942 29.4499 57.5196 29.4196 57.5428 29.3877Z" fill="#168CCC"/>
<path d="M60.1871 20.6018C60.1702 20.5949 60.1526 20.5928 60.1357 20.5869C60.1548 20.5935 60.1748 20.5973 60.1938 20.6049C60.1917 20.6037 60.1895 20.6026 60.1871 20.6018Z" fill="#168CCC"/>
<path d="M57.6319 29.2373C57.6142 29.2759 57.5937 29.3132 57.5703 29.3488C57.5935 29.3131 57.6141 29.2759 57.6319 29.2373Z" fill="#168CCC"/>
<path d="M60.3149 20.668C60.328 20.6753 60.342 20.6808 60.3544 20.6891C60.3424 20.6808 60.3279 20.6753 60.3149 20.668Z" fill="#168CCC"/>
<path d="M59.751 20.5444C59.7809 20.5404 59.8109 20.538 59.8411 20.5371C59.8109 20.538 59.7809 20.5404 59.751 20.5444Z" fill="#168CCC"/>
<path d="M57.3071 29.6133C57.2604 29.643 57.2111 29.6686 57.1597 29.6895C57.211 29.6685 57.2604 29.643 57.3071 29.6133Z" fill="#168CCC"/>
<path d="M59.3662 20.6689C59.406 20.6444 59.4477 20.6228 59.4908 20.6045C59.4476 20.6228 59.406 20.6443 59.3662 20.6689Z" fill="#168CCC"/>
<path d="M59.2085 20.7864C59.2458 20.7507 59.2861 20.7182 59.3292 20.6895C59.2863 20.7183 59.2459 20.7508 59.2085 20.7864Z" fill="#168CCC"/>
<path d="M57.1147 29.707C57.0774 29.7202 57.0395 29.7313 57.001 29.7403C57.0395 29.7314 57.0775 29.7203 57.1147 29.707Z" fill="#168CCC"/>
<path d="M59.5508 20.5863C59.5876 20.5734 59.625 20.5625 59.6631 20.5537C59.625 20.5625 59.5875 20.5733 59.5508 20.5863Z" fill="#168CCC"/>
<path d="M58.9912 21.0957L58.9873 21.103L56.7974 26.4369L57.6516 28.5183C57.7424 28.739 57.7411 28.986 57.6481 29.2057L57.6516 29.1978L59.8422 23.8635L58.9873 21.7821C58.897 21.5617 58.8983 21.3151 58.9912 21.0957" fill="#43B478"/>
<path d="M57.6516 28.5179L56.797 26.4365L55.9428 28.5179C55.8517 28.7385 55.8531 28.9857 55.9467 29.2053C55.9516 29.2167 55.9579 29.2264 55.9629 29.2372C55.9806 29.2753 56.0009 29.3122 56.0237 29.3477C56.0325 29.3618 56.0431 29.375 56.0526 29.3885C56.0754 29.4195 56.1002 29.449 56.1269 29.4768C56.1381 29.4886 56.149 29.5007 56.1614 29.5118C56.1981 29.5471 56.2379 29.5792 56.2803 29.6077L56.286 29.6122C56.3329 29.642 56.3823 29.6678 56.4338 29.6891C56.4493 29.6957 56.4651 29.7012 56.481 29.7071C56.5176 29.7203 56.5551 29.7311 56.5932 29.7393C56.6087 29.7431 56.6246 29.7473 56.6404 29.7501C56.6912 29.7592 56.7426 29.764 56.7942 29.7646L56.797 29.7649L56.7998 29.7646C56.8517 29.764 56.9034 29.7592 56.9544 29.7501C56.9698 29.7473 56.9853 29.7431 57.0008 29.7397C57.0395 29.731 57.0776 29.72 57.1149 29.7068C57.13 29.7009 57.1451 29.6957 57.1599 29.6895C57.2112 29.6685 57.2604 29.643 57.307 29.6133L57.3116 29.6098C57.3551 29.5805 57.3959 29.5476 57.4337 29.5114C57.4453 29.5007 57.4559 29.4893 57.4668 29.4775C57.4941 29.4491 57.5193 29.4189 57.5425 29.3871C57.552 29.3743 57.5615 29.3618 57.5707 29.348C57.594 29.3124 57.6144 29.2751 57.6319 29.2365C57.6372 29.2261 57.6432 29.2164 57.6477 29.2053C57.7411 28.9856 57.7425 28.7386 57.6516 28.5179" fill="#009B69"/>
<path d="M63.5565 29.4785C63.5456 29.49 63.5347 29.5014 63.5234 29.5125C63.5351 29.5014 63.5456 29.49 63.5565 29.4785Z" fill="#168CCC"/>
<path d="M62.5234 29.6894C62.4729 29.6686 62.4244 29.6435 62.3784 29.6143C62.4245 29.6434 62.473 29.6685 62.5234 29.6894Z" fill="#168CCC"/>
<path d="M62.2169 29.477C62.1903 29.4491 62.1655 29.4196 62.1426 29.3887C62.1653 29.4197 62.1901 29.4492 62.2169 29.477Z" fill="#168CCC"/>
<path d="M62.3707 29.6086C62.3282 29.5799 62.2881 29.5478 62.251 29.5127C62.288 29.548 62.328 29.5801 62.3707 29.6086Z" fill="#168CCC"/>
<path d="M62.1136 29.3474C62.0909 29.3121 62.0705 29.2753 62.0527 29.2373C62.0706 29.2752 62.091 29.312 62.1136 29.3474Z" fill="#168CCC"/>
<path d="M63.6601 29.3486C63.6517 29.3621 63.6418 29.3746 63.6323 29.3874C63.6418 29.3746 63.6517 29.3621 63.6601 29.3486Z" fill="#168CCC"/>
<path d="M62.8843 29.7645C62.8327 29.764 62.7812 29.7591 62.7305 29.75C62.7812 29.759 62.8327 29.7639 62.8843 29.7645Z" fill="#168CCC"/>
<path d="M60.6074 20.9375C60.6187 20.9538 60.6261 20.9725 60.6359 20.9895C60.6261 20.9725 60.6183 20.9534 60.6074 20.9375Z" fill="#168CCC"/>
<path d="M63.4012 29.6104L63.3984 29.6128L63.4012 29.6104Z" fill="#168CCC"/>
<path d="M63.0911 29.7402C63.0753 29.7437 63.0598 29.7475 63.0439 29.7503C63.0598 29.7475 63.0753 29.7437 63.0911 29.7402Z" fill="#168CCC"/>
<path d="M60.1938 20.6045C60.2359 20.6226 60.2764 20.6438 60.3153 20.6679C60.2765 20.6438 60.2359 20.6226 60.1938 20.6045Z" fill="#168CCC"/>
<path d="M63.232 29.6994C63.2377 29.6961 63.2436 29.6931 63.2496 29.6904C63.2349 29.6966 63.2194 29.7018 63.2046 29.7074C63.2134 29.7043 63.2232 29.7029 63.232 29.6994Z" fill="#168CCC"/>
<path d="M62.6827 29.7396C62.6447 29.7312 62.6073 29.7203 62.5708 29.707C62.6073 29.7203 62.6447 29.7312 62.6827 29.7396Z" fill="#168CCC"/>
<path d="M59.0771 20.9368C59.0905 20.9171 59.1074 20.9008 59.1222 20.8828C59.1074 20.9008 59.0902 20.9174 59.0771 20.9368Z" fill="#168CCC"/>
<path d="M59.1909 20.8007C59.1965 20.7951 59.2032 20.7913 59.2089 20.7861C59.2032 20.7913 59.1965 20.7951 59.1909 20.8007Z" fill="#168CCC"/>
<path d="M59.3291 20.6887C59.3407 20.6811 59.3541 20.6762 59.3657 20.6689C59.3541 20.6762 59.3407 20.6814 59.3291 20.6887Z" fill="#168CCC"/>
<path d="M63.7377 29.2061C63.7331 29.2168 63.7271 29.2269 63.7222 29.2372C63.7271 29.2269 63.7331 29.2168 63.7377 29.2061Z" fill="#168CCC"/>
<path d="M58.9912 21.0962C59.0071 21.0614 59.0252 21.0277 59.0454 20.9951C59.0253 21.0277 59.0072 21.0615 58.9912 21.0962Z" fill="#168CCC"/>
<path d="M60.4937 20.8008C60.5126 20.8212 60.5305 20.8426 60.5471 20.8649C60.5305 20.8426 60.5126 20.8212 60.4937 20.8008Z" fill="#168CCC"/>
<path d="M60.3545 20.6895C60.3911 20.7147 60.4258 20.7425 60.4583 20.7726C60.4257 20.7425 60.3911 20.7147 60.3545 20.6895Z" fill="#168CCC"/>
<path d="M59.4966 20.6015L59.4902 20.605C59.5099 20.5967 59.5311 20.5929 59.5508 20.5859C59.5332 20.5922 59.5145 20.5942 59.4966 20.6015Z" fill="#168CCC"/>
<path d="M60.019 20.5537C60.0586 20.5622 60.0975 20.5733 60.1355 20.587C60.0976 20.5732 60.0586 20.5621 60.019 20.5537Z" fill="#168CCC"/>
<path d="M62.0325 28.5175L62.887 26.4365L60.6964 21.1022L60.6936 21.0977C60.7857 21.3165 60.7867 21.5621 60.6964 21.7816L59.8418 23.863L62.0325 29.1969L62.0367 29.2049C61.943 28.9853 61.9415 28.7382 62.0325 28.5175Z" fill="#8CD7F7"/>
<path d="M59.8413 20.5371C59.8752 20.5381 59.909 20.5407 59.9427 20.5451C59.909 20.5407 59.8752 20.538 59.8413 20.5371Z" fill="#168CCC"/>
<path d="M59.6636 20.5533C59.6926 20.5486 59.7219 20.5455 59.7512 20.5439C59.7219 20.5455 59.6926 20.5486 59.6636 20.5533Z" fill="#168CCC"/>
<path d="M60.6928 21.096C60.6763 21.0594 60.6573 21.0238 60.6358 20.9897C60.6259 20.9728 60.6185 20.9541 60.6073 20.9378C60.5886 20.9125 60.5685 20.8882 60.5471 20.8651C60.5291 20.8436 60.5133 20.8207 60.4936 20.801C60.4827 20.7903 60.4696 20.7826 60.4584 20.7722C60.4258 20.7421 60.3911 20.7143 60.3545 20.6891C60.3422 20.6812 60.3281 20.6756 60.3151 20.6684C60.2763 20.6443 60.2357 20.6231 60.1937 20.605C60.1747 20.5977 60.155 20.5935 60.1356 20.587C60.0976 20.5734 60.0587 20.5624 60.0191 20.5541C59.9941 20.5489 59.9677 20.5478 59.9424 20.5451C59.9088 20.5405 59.8749 20.5379 59.841 20.5371C59.8109 20.538 59.7808 20.5404 59.7509 20.5444C59.7217 20.5472 59.6921 20.5485 59.6633 20.5541C59.6252 20.5626 59.5877 20.5733 59.551 20.5863C59.5309 20.5932 59.5102 20.5974 59.4905 20.6053C59.4473 20.6236 59.4056 20.6451 59.3659 20.6697C59.3542 20.6767 59.3409 20.6815 59.3293 20.6891C59.2863 20.7181 59.2459 20.7505 59.2085 20.7861C59.2032 20.7913 59.1962 20.7955 59.1906 20.8006C59.1663 20.8269 59.1433 20.8544 59.1219 20.8831C59.1072 20.9014 59.0903 20.9174 59.0769 20.9371C59.0646 20.9555 59.0565 20.9756 59.0452 20.9949C58.9719 21.112 58.9284 21.2446 58.9183 21.3817C58.9082 21.5188 58.9318 21.6563 58.9871 21.7825L59.8421 23.8638L60.6967 21.7825C60.787 21.562 60.7856 21.3155 60.6928 21.0961" fill="#0F7DC3"/>
<path d="M63.7221 29.2373C63.7042 29.2759 63.6835 29.3131 63.6602 29.3488C63.6836 29.3132 63.7043 29.276 63.7221 29.2373Z" fill="#168CCC"/>
<path d="M63.6323 29.3877C63.6092 29.4196 63.5839 29.4499 63.5566 29.4784C63.5839 29.4499 63.6092 29.4196 63.6323 29.3877Z" fill="#168CCC"/>
<path d="M63.3967 29.6133C63.3501 29.643 63.3008 29.6685 63.2495 29.6895C63.3008 29.6685 63.35 29.643 63.3967 29.6133Z" fill="#168CCC"/>
<path d="M63.2045 29.707C63.1673 29.7202 63.1293 29.7313 63.0908 29.7403C63.1293 29.7313 63.1673 29.7202 63.2045 29.707Z" fill="#168CCC"/>
<path d="M63.5239 29.5117C63.486 29.5479 63.445 29.5808 63.4014 29.6101C63.445 29.5808 63.486 29.5479 63.5239 29.5117Z" fill="#168CCC"/>
<path d="M63.044 29.75C62.9932 29.7591 62.9417 29.764 62.8901 29.7646C62.9417 29.7639 62.9932 29.759 63.044 29.75Z" fill="#168CCC"/>
<path d="M62.0525 29.2379C62.0472 29.2272 62.0412 29.2171 62.0366 29.2061C62.0412 29.2171 62.0472 29.2272 62.0525 29.2379Z" fill="#168CCC"/>
<path d="M62.2509 29.5119C62.2394 29.5008 62.2284 29.4887 62.2168 29.4766C62.2284 29.489 62.239 29.5008 62.2509 29.5119Z" fill="#168CCC"/>
<path d="M62.1425 29.3885C62.1326 29.375 62.1224 29.3619 62.1133 29.3477C62.1224 29.3619 62.1326 29.375 62.1425 29.3885Z" fill="#168CCC"/>
<path d="M66.2773 20.6014C66.1651 20.5567 66.0451 20.5342 65.924 20.5352C65.8029 20.5362 65.6832 20.5606 65.5718 20.6072C65.4604 20.6537 65.3593 20.7214 65.2745 20.8064C65.1897 20.8914 65.1227 20.9921 65.0775 21.1026L62.8872 26.4369L63.7418 28.5179C63.8325 28.7387 63.831 28.9859 63.7376 29.2057L63.7407 29.2004L66.7863 21.782C66.8779 21.5591 66.8757 21.3095 66.7803 21.0881C66.6848 20.8667 66.5039 20.6916 66.2774 20.6014" fill="#EB0F69"/>
<path d="M62.3783 29.6146L62.3706 29.6084L62.3783 29.6146Z" fill="#168CCC"/>
<path d="M62.7301 29.7506C62.7139 29.7478 62.6985 29.7437 62.6826 29.7402C62.6985 29.7437 62.7139 29.7478 62.7301 29.7506Z" fill="#168CCC"/>
<path d="M62.5417 29.6988C62.5512 29.7026 62.5615 29.704 62.5709 29.7071C62.5551 29.7016 62.5389 29.696 62.5234 29.6895C62.5293 29.693 62.5354 29.6961 62.5417 29.6988Z" fill="#168CCC"/>
<path d="M63.7414 28.5179L62.8869 26.4365L62.0326 28.5179C61.9416 28.7385 61.943 28.9857 62.0365 29.2053C62.0411 29.2167 62.0474 29.2264 62.0523 29.2372C62.07 29.2753 62.0904 29.3122 62.1132 29.3477C62.1224 29.3618 62.1326 29.375 62.1424 29.3885C62.1652 29.4195 62.19 29.449 62.2167 29.4768C62.228 29.4886 62.2389 29.5007 62.2509 29.5118C62.2877 29.5471 62.3277 29.5792 62.3702 29.6077L62.3755 29.6122C62.4225 29.6419 62.4719 29.6676 62.5233 29.6891C62.5388 29.6957 62.555 29.7012 62.5708 29.7071C62.6073 29.7203 62.6447 29.731 62.6827 29.7393C62.6986 29.7431 62.7141 29.7473 62.7302 29.7501C62.781 29.7592 62.8325 29.7641 62.8841 29.7646L62.8869 29.7649L62.8886 29.7646C62.9407 29.7641 62.9926 29.7592 63.0438 29.7501C63.0597 29.7473 63.0748 29.7431 63.0907 29.7397C63.1293 29.731 63.1674 29.72 63.2047 29.7068C63.2195 29.7009 63.235 29.6957 63.2498 29.6895C63.301 29.6684 63.3502 29.6429 63.3969 29.6133L63.4011 29.6098C63.4447 29.5805 63.4857 29.5476 63.5236 29.5114C63.5349 29.5007 63.5454 29.4893 63.5567 29.4775C63.5838 29.4491 63.6089 29.4189 63.632 29.3871C63.6418 29.3743 63.6513 29.3618 63.6601 29.348C63.6834 29.3124 63.704 29.2751 63.7217 29.2365C63.7267 29.2261 63.733 29.2164 63.7372 29.2053C63.8309 28.9857 63.8324 28.7386 63.7415 28.5179" fill="#6950A0"/>
<path d="M75.3119 20.5361C75.1909 20.5361 75.0711 20.5596 74.9593 20.6051C74.8475 20.6507 74.7459 20.7175 74.6603 20.8017C74.5748 20.8859 74.5069 20.9858 74.4606 21.0958C74.4143 21.2058 74.3905 21.3237 74.3905 21.4428V21.4916C73.6962 20.9668 72.8664 20.6437 71.9951 20.5589C71.1238 20.4741 70.2458 20.6309 69.4605 21.0117C68.6751 21.3925 68.0138 21.9821 67.5513 22.7136C67.0888 23.4451 66.8438 24.2893 66.8438 25.1508C66.8438 26.0123 67.0888 26.8565 67.5513 27.588C68.0138 28.3195 68.6751 28.9091 69.4605 29.2899C70.2458 29.6707 71.1238 29.8275 71.9951 29.7427C72.8664 29.6579 73.6962 29.3348 74.3905 28.81V28.8581C74.3902 28.9773 74.4139 29.0954 74.4601 29.2057C74.5063 29.3159 74.5742 29.416 74.6598 29.5004C74.7454 29.5848 74.8471 29.6518 74.959 29.6974C75.0709 29.7431 75.1909 29.7666 75.3121 29.7666C75.4333 29.7666 75.5533 29.7431 75.6652 29.6974C75.7771 29.6518 75.8788 29.5848 75.9644 29.5004C76.05 29.416 76.1179 29.3159 76.1641 29.2057C76.2103 29.0954 76.234 28.9773 76.2337 28.8581V21.4428C76.2337 21.3237 76.2099 21.2058 76.1635 21.0958C76.1172 20.9857 76.0493 20.8858 75.9637 20.8016C75.8781 20.7174 75.7765 20.6506 75.6647 20.6051C75.5528 20.5595 75.433 20.5361 75.3119 20.5361V20.5361ZM71.5437 27.9514C70.9807 27.9514 70.4304 27.7871 69.9623 27.4793C69.4942 27.1715 69.1294 26.7341 68.914 26.2223C68.6986 25.7105 68.6422 25.1473 68.7521 24.604C68.862 24.0607 69.1331 23.5617 69.5312 23.17C69.9293 22.7783 70.4366 22.5116 70.9888 22.4036C71.5409 22.2955 72.1133 22.351 72.6334 22.5631C73.1535 22.7751 73.5981 23.1341 73.9108 23.5947C74.2236 24.0553 74.3905 24.5968 74.3905 25.1508C74.3896 25.8934 74.0894 26.6053 73.5557 27.1303C73.022 27.6554 72.2984 27.9507 71.5437 27.9514Z" fill="white"/>
<path d="M91.6375 16.7178C91.5164 16.7178 91.3965 16.7413 91.2846 16.7869C91.1728 16.8325 91.0711 16.8993 90.9855 16.9836C90.8999 17.0678 90.832 17.1678 90.7857 17.2779C90.7394 17.388 90.7156 17.506 90.7157 17.6251V21.4917C90.0214 20.9669 89.1916 20.6438 88.3203 20.559C87.449 20.4742 86.571 20.631 85.7857 21.0118C85.0003 21.3926 84.339 21.9821 83.8765 22.7136C83.414 23.4451 83.1689 24.2894 83.1689 25.1509C83.1689 26.0124 83.414 26.8566 83.8765 27.5881C84.339 28.3196 85.0003 28.9092 85.7857 29.29C86.571 29.6708 87.449 29.8276 88.3203 29.7428C89.1916 29.658 90.0214 29.3349 90.7157 28.8101V28.8582C90.7157 29.0987 90.8128 29.3294 90.9856 29.4994C91.1584 29.6695 91.3929 29.765 91.6373 29.765C91.8817 29.765 92.1162 29.6695 92.289 29.4994C92.4618 29.3294 92.5589 29.0987 92.5589 28.8582V17.6251C92.559 17.506 92.5352 17.3881 92.4889 17.278C92.4426 17.1679 92.3748 17.0679 92.2892 16.9837C92.2036 16.8994 92.102 16.8326 91.9902 16.7869C91.8784 16.7413 91.7585 16.7178 91.6375 16.7178L91.6375 16.7178ZM87.8693 27.9515C87.3063 27.9516 86.7559 27.7873 86.2877 27.4796C85.8196 27.1718 85.4547 26.7344 85.2393 26.2226C85.0238 25.7108 84.9674 25.1477 85.0772 24.6043C85.187 24.061 85.4582 23.5619 85.8563 23.1702C86.2544 22.7785 86.7616 22.5118 87.3138 22.4037C87.866 22.2956 88.4384 22.3511 88.9585 22.5631C89.4786 22.7751 89.9232 23.1342 90.236 23.5948C90.5488 24.0554 90.7157 24.5969 90.7156 25.1509C90.7148 25.8934 90.4146 26.6053 89.881 27.1303C89.3474 27.6553 88.6239 27.9507 87.8693 27.9515Z" fill="white"/>
<path d="M42.5616 20.5353C41.5314 20.5355 40.5304 20.8715 39.7149 21.4908V21.442C39.7149 21.2015 39.6178 20.9708 39.4449 20.8008C39.2721 20.6307 39.0377 20.5352 38.7932 20.5352C38.5488 20.5352 38.3144 20.6307 38.1415 20.8008C37.9687 20.9708 37.8716 21.2015 37.8716 21.442V28.8573C37.8716 29.0978 37.9687 29.3284 38.1415 29.4985C38.3144 29.6686 38.5488 29.7641 38.7932 29.7641C39.0377 29.7641 39.2721 29.6686 39.4449 29.4985C39.6178 29.3284 39.7149 29.0978 39.7149 28.8573V25.15C39.7157 24.4073 40.0159 23.6954 40.5496 23.1703C41.0832 22.6451 41.8068 22.3498 42.5616 22.349C42.8056 22.3483 43.0394 22.2525 43.2117 22.0825C43.384 21.9125 43.4808 21.6822 43.4808 21.4421C43.4808 21.2021 43.384 20.9718 43.2117 20.8018C43.0394 20.6318 42.8056 20.5359 42.5616 20.5353Z" fill="white"/>
<path d="M82.2577 20.5361C81.2277 20.5364 80.2269 20.8724 79.4116 21.4916V21.4428C79.4112 21.2026 79.3139 20.9724 79.1411 20.8027C78.9683 20.633 78.7341 20.5377 78.49 20.5377C78.2459 20.5377 78.0117 20.633 77.8389 20.8027C77.6661 20.9724 77.5688 21.2026 77.5684 21.4428V28.8581C77.5681 28.9773 77.5918 29.0954 77.638 29.2057C77.6842 29.3159 77.7521 29.416 77.8377 29.5004C77.9233 29.5848 78.025 29.6518 78.1369 29.6974C78.2488 29.7431 78.3688 29.7666 78.49 29.7666C78.6112 29.7666 78.7312 29.7431 78.8431 29.6974C78.955 29.6518 79.0567 29.5848 79.1423 29.5004C79.2279 29.416 79.2958 29.3159 79.342 29.2057C79.3882 29.0954 79.4119 28.9773 79.4116 28.8581V25.1508C79.4124 24.4083 79.7124 23.6963 80.246 23.1712C80.7795 22.6461 81.503 22.3507 82.2577 22.3498C82.3789 22.3501 82.499 22.3269 82.6111 22.2815C82.7232 22.236 82.8251 22.1693 82.9109 22.085C82.9968 22.0008 83.0649 21.9007 83.1113 21.7906C83.1578 21.6804 83.1817 21.5623 83.1817 21.443C83.1817 21.3237 83.1578 21.2056 83.1113 21.0954C83.0649 20.9852 82.9968 20.8851 82.9109 20.8009C82.8251 20.7167 82.7232 20.6499 82.6111 20.6045C82.499 20.559 82.3789 20.5358 82.2577 20.5361Z" fill="white"/>
<path d="M52.8231 24.5735C52.8203 24.5534 52.8157 24.5344 52.8129 24.5143C52.812 24.5106 52.8114 24.5069 52.8111 24.5032C52.6541 23.4034 52.0987 22.3963 51.247 21.6674C50.3954 20.9385 49.3048 20.5368 48.176 20.5361C47.0473 20.5355 45.9563 20.936 45.1038 21.664C44.2513 22.3919 43.6947 23.3983 43.5364 24.498L43.5346 24.5084C43.5311 24.533 43.5262 24.5513 43.5237 24.5704L43.523 24.5728C43.3972 25.5497 43.5925 26.5406 44.0803 27.4005C44.5681 28.2604 45.3228 28.9441 46.2339 29.3516C47.145 29.7591 48.1647 29.869 49.1439 29.6652C50.1231 29.4615 51.0102 28.9547 51.6756 28.2191C51.8382 28.0395 51.9216 27.8037 51.9075 27.5636C51.8933 27.3235 51.7829 27.0988 51.6003 26.9388C51.4178 26.7789 51.1781 26.6968 50.9341 26.7107C50.6901 26.7246 50.4617 26.8333 50.2991 27.0129C49.9413 27.4088 49.4767 27.6965 48.9592 27.8428C48.4418 27.989 47.8927 27.9876 47.376 27.8389C46.8593 27.6902 46.3961 27.4002 46.0403 27.0026C45.6845 26.605 45.4508 26.1162 45.3663 25.593H51.9083C51.9273 25.593 51.9449 25.5889 51.9632 25.5878C51.9833 25.5865 52.0026 25.5889 52.023 25.5861C52.035 25.5847 52.0452 25.5802 52.0568 25.5785C52.0891 25.573 52.1211 25.5658 52.1526 25.557C52.1807 25.5494 52.2082 25.5418 52.2349 25.5321C52.2638 25.521 52.2912 25.5078 52.3183 25.4943C52.3452 25.482 52.3713 25.4681 52.3965 25.4528C52.4211 25.4375 52.4443 25.4202 52.4676 25.4026C52.4917 25.3851 52.5149 25.3664 52.5369 25.3464C52.558 25.3271 52.577 25.3059 52.5964 25.2844C52.6161 25.2623 52.6355 25.2408 52.6531 25.2169C52.67 25.1937 52.6851 25.1688 52.6999 25.1435C52.715 25.1186 52.7298 25.0936 52.7425 25.0673C52.7545 25.041 52.765 25.0141 52.7741 24.9866C52.785 24.9582 52.7942 24.9292 52.8016 24.8997C52.8083 24.8721 52.8133 24.8441 52.8167 24.8159C52.822 24.7845 52.8253 24.7528 52.8266 24.721C52.8273 24.7092 52.8305 24.6978 52.8305 24.686C52.8305 24.667 52.8255 24.6486 52.8245 24.6292C52.8231 24.6105 52.8255 24.5925 52.8231 24.5735L52.8231 24.5735ZM45.6961 23.7794C45.9425 23.3459 46.302 22.985 46.7374 22.7338C47.1728 22.4826 47.6685 22.3501 48.1732 22.3501C48.678 22.3501 49.1736 22.4826 49.609 22.7338C50.0444 22.985 50.4039 23.3459 50.6504 23.7794H45.6961Z" fill="white"/>
<path d="M19.0932 12.7579C19.4801 12.8164 19.5582 12.7392 19.6096 12.379C19.7372 11.538 19.9903 10.72 20.3607 9.95171C20.9077 8.79448 21.7471 7.79458 22.7988 7.04752C23.9374 6.32327 25.1912 5.79172 26.5082 5.4749C27.3942 5.28237 28.3047 5.22282 29.2088 5.29827C30.8363 5.44268 31.737 5.89948 32.1889 6.49099C32.3395 6.68528 32.4306 6.91771 32.4519 7.16111C32.447 7.36608 32.3954 7.56735 32.3008 7.75001C32.2062 7.93268 32.071 8.09205 31.9053 8.21633C31.1435 8.76673 30.2895 9.18122 29.382 9.44091C28.1212 9.85406 26.3983 10.2908 24.6807 10.68C23.6854 10.9017 22.7037 11.1794 21.7407 11.5119C20.6046 11.8914 20.2262 12.9501 20.9703 13.3453C21.7516 13.7559 22.4913 14.239 23.1792 14.788C24.2614 15.63 25.2499 16.5825 26.128 17.6295C27.197 18.9161 28.9462 21.3711 29.5752 23.7545C30.2721 26.3709 29.8364 28.8519 28.3338 29.5448C26.8605 30.225 24.8968 29.2432 23.5185 27.8351C22.2078 26.4993 21.2923 24.9253 20.4318 22.4973C19.6856 20.4108 19.3826 17.3847 19.384 15.802C19.384 15.2749 19.3755 15.162 19.397 14.6858C19.4343 14.0365 17.8561 14.2003 17.0906 14.7011C15.7144 15.6015 14.3403 17.1776 13.5371 18.1043C13.1876 18.5085 12.7138 19.1031 12.2116 19.7264C11.6159 20.5206 10.9248 21.2409 10.1532 21.8715C9.15083 22.5915 7.54056 22.889 6.41288 22.0966C6.0968 21.8394 5.84487 21.5143 5.67647 21.1462C5.50806 20.7782 5.42767 20.3771 5.44146 19.9737C5.43267 19.3882 5.58585 18.8113 5.88459 18.3048C6.4098 17.474 7.08256 16.7428 7.87075 16.1462C9.17485 15.1504 10.6154 14.3408 12.1496 13.7414C14.6384 12.7544 17.3176 12.4441 19.0933 12.7579" fill="white"/>
<path d="M42.8705 5.26562C42.7424 5.26562 42.515 5.26563 42.515 5.34147V8.87735C42.1979 8.32913 41.4686 7.82004 40.3455 7.82004C38.8721 7.82004 37.8447 8.68306 37.8447 10.3658V12.6446C37.8447 14.328 38.8721 15.1879 40.3764 15.1879C40.808 15.1996 41.235 15.0981 41.6136 14.894C41.9922 14.6899 42.3089 14.3905 42.5312 14.0264V15.0026C42.5312 15.0861 42.7424 15.0861 42.8705 15.0861C43.0085 15.0861 43.2309 15.0861 43.2309 15.0026V5.34147C43.2309 5.26563 43.0085 5.26562 42.8705 5.26562ZM42.515 12.7633C42.4957 13.2482 42.2832 13.7061 41.9236 14.038C41.5639 14.3699 41.0859 14.5492 40.5929 14.5372C39.4057 14.5372 38.5705 14.0011 38.5705 12.5285V10.4804C38.5705 8.98125 39.3497 8.4448 40.4634 8.4448C41.6288 8.4448 42.515 9.14921 42.515 10.3222V12.7633Z" fill="white"/>
<path d="M47.4205 14.4162H46.6916C46.108 14.4162 45.8711 14.2081 45.8711 13.6623V8.74496H47.43C47.518 8.74496 47.518 8.61822 47.518 8.46134C47.518 8.30273 47.518 8.16109 47.43 8.16109H45.8711V6.45235C45.8711 6.37305 45.6437 6.37305 45.5121 6.37305C45.3752 6.37305 45.1517 6.37305 45.1517 6.45235V8.16109H44.1437C44.0557 8.16109 44.0557 8.32974 44.0557 8.46134C44.0557 8.59121 44.0557 8.74496 44.1437 8.74496H45.1517V13.6886C45.1517 14.4567 45.5234 15.0313 46.5209 15.0313H47.4205C47.518 15.0313 47.5402 14.9901 47.5402 14.7075C47.5402 14.4439 47.518 14.4162 47.4205 14.4162Z" fill="white"/>
<path d="M50.9728 7.81934C50.2128 7.81897 49.4605 7.96949 48.761 8.2619C48.5872 8.3426 48.8353 8.99194 48.994 8.89982C49.6025 8.6143 50.2688 8.4683 50.9429 8.4728C52.1751 8.4728 52.6781 8.99193 52.6781 10.2847V10.8607C49.56 10.4406 48.1289 11.1322 48.1289 12.7491V13.0882C48.1289 14.3913 48.994 15.1875 50.3995 15.1875C51.2547 15.1573 52.0687 14.8184 52.6862 14.2355V15.0022C52.6862 15.0826 52.9013 15.0826 53.0378 15.0826C53.1666 15.0826 53.393 15.0826 53.393 15.0022V10.2324C53.393 8.69205 52.6549 7.81934 50.9728 7.81934ZM52.6781 13.582C52.3986 13.8765 52.0626 14.1138 51.6896 14.2801C51.3165 14.4464 50.9137 14.5385 50.5043 14.551C49.604 14.551 48.8483 14.0773 48.8483 13.0882V12.763C48.8483 11.5353 49.9704 11.0401 52.6781 11.4179V13.582Z" fill="white"/>
<path d="M59.2491 13.8834C58.7147 14.3135 58.0476 14.5519 57.3572 14.5594C56.0831 14.5594 55.3721 13.8834 55.3721 12.5283V10.4802C55.3721 9.10947 56.0831 8.44455 57.3572 8.44455C58.0254 8.47647 58.6676 8.70847 59.198 9.10947C59.329 9.21406 59.6732 8.68247 59.5007 8.55155C58.8739 8.07099 58.1004 7.81299 57.3059 7.81945C55.6625 7.81945 54.6499 8.72021 54.6499 10.3656V12.6443C54.6499 14.2751 55.6625 15.1877 57.3059 15.1877C58.138 15.19 58.9441 14.903 59.582 14.3773C59.6975 14.2751 59.3821 13.7799 59.2491 13.8834Z" fill="white"/>
</g>
<defs>
<clipPath id="clip0_5261_1834270">
<rect width="98" height="35" fill="white"/>
</clipPath>
</defs>
</svg>
