<svg width="226" height="207" viewBox="0 0 226 207" fill="none" xmlns="http://www.w3.org/2000/svg">
<path d="M224.848 242.719C239.33 235.859 243.904 211.467 236.536 185.044C229.93 161.415 214.177 137.023 203.252 124.066C191.564 110.092 182.418 101.961 174.033 95.1011C169.206 91.0359 162.092 85.7003 152.183 80.8729C145.831 77.824 148.88 66.8988 160.059 62.8336C166.919 60.2929 175.049 57.498 189.024 54.7032C206.301 51.1462 222.815 46.3187 234.757 41.9995C246.699 37.6802 255.337 33.3609 259.656 30.058C264.484 26.2468 265.5 22.1816 265.5 19.3868C265.5 17.6083 264.484 14.8135 262.451 12.7809C257.37 7.69939 249.493 2.36381 233.487 0.839367C225.864 0.077137 216.972 0.58528 207.063 2.61788C195.629 4.90456 179.877 12.0186 170.73 18.3705C159.805 25.9928 151.675 37.1721 146.339 47.5891C141.766 56.4817 139.987 65.6284 139.225 71.2181C138.717 75.0292 137.954 75.7914 133.889 75.0292C117.12 71.9803 90.9506 75.0292 66.0513 84.9381C50.0446 91.29 34.0379 100.945 23.6208 109.329C14.22 116.952 8.88447 124.32 4.5652 130.672C1.26222 135.499 0.5 141.089 0.5 147.441C0.5 155.825 3.80297 164.464 9.64669 168.275C20.826 175.643 37.0868 173.61 46.2335 165.988C52.8394 160.398 60.2076 153.03 66.8135 145.154C72.1491 138.802 76.4684 132.45 79.7713 128.639C87.9017 119.238 101.368 103.486 114.834 94.593C122.456 89.5115 137.954 87.7329 136.938 94.0848C136.176 99.4204 137.192 100.183 136.938 105.772C136.176 121.271 140.241 151.76 147.101 172.34C155.232 196.477 165.14 212.23 177.59 225.441C191.31 239.924 210.874 249.325 224.848 242.719Z" fill="#19AAF8"/>
</svg>
