<svg width="211" height="16" viewBox="0 0 211 16" fill="none" xmlns="http://www.w3.org/2000/svg">
<path d="M37.0608 10.6522C36.7099 11.5202 36.1905 12.31 35.5326 12.9758C34.8383 13.6745 34.0107 14.2261 33.0989 14.5978C32.1872 14.9696 31.21 15.1538 30.2256 15.1395C29.205 15.1522 28.1924 14.9571 27.2495 14.566C26.3867 14.2082 25.6042 13.6811 24.9482 13.0157C24.2922 12.3503 23.776 11.5601 23.43 10.6919C22.7063 8.88387 22.7063 6.86631 23.43 5.05832C23.7809 4.19025 24.3003 3.40047 24.9582 2.73469C25.6264 2.06242 26.4183 1.52598 27.2902 1.15496C28.2311 0.757188 29.2439 0.558326 30.2652 0.5709C31.2859 0.558137 32.2984 0.753302 33.2413 1.14451C34.1045 1.50173 34.8873 2.02865 35.5433 2.6941C36.1994 3.35955 36.7154 4.15 37.0608 5.01862C37.7846 6.82661 37.7846 8.84417 37.0608 10.6522ZM34.6599 5.93384C34.4375 5.34232 34.1033 4.79926 33.6756 4.33428C33.2477 3.87373 32.7315 3.50417 32.1578 3.24768C31.5507 2.98343 30.896 2.8462 30.234 2.8444C29.5719 2.84261 28.9165 2.97627 28.308 3.23722C27.7413 3.48693 27.2315 3.84994 26.81 4.30396C26.3862 4.76619 26.0552 5.3057 25.8351 5.89309C25.366 7.14502 25.366 8.52467 25.8351 9.77661C26.0573 10.3682 26.3915 10.9114 26.8194 11.3762C27.2474 11.8371 27.764 12.2067 28.3383 12.4628C28.9446 12.7351 29.6028 12.8727 30.2673 12.8661C30.9282 12.8732 31.583 12.7393 32.188 12.4732C32.7545 12.223 33.2641 11.8601 33.686 11.4065C34.109 10.9439 34.4396 10.4045 34.6599 9.81736C35.1303 8.56566 35.1303 7.18553 34.6599 5.93384Z" fill="#74531D"/>
<path d="M47.7434 0.8125H50.1913V12.6647H57.5902V14.8984H47.7393L47.7434 0.8125Z" fill="#74531D"/>
<path d="M79.515 10.6221C79.1649 11.4696 78.6411 12.2341 77.9774 12.8663C77.2898 13.5111 76.4841 14.0167 75.6047 14.3552C74.6389 14.7258 73.6117 14.9101 72.5775 14.8985H67.332V0.812536H72.5796C73.613 0.80093 74.6395 0.981963 75.6068 1.34641C76.487 1.6784 77.2933 2.18077 77.9795 2.82481C78.6414 3.45447 79.1651 4.21522 79.5171 5.05859C80.2409 6.84236 80.2409 8.83834 79.5171 10.6221H79.515ZM77.1141 5.94562C76.8892 5.37672 76.5532 4.85846 76.1256 4.42124C75.6877 3.9803 75.1625 3.63583 74.5838 3.40989C73.9414 3.16052 73.257 3.0371 72.5681 3.04631H69.7851V12.6647H72.566C73.254 12.6737 73.9376 12.5539 74.5817 12.3116C75.1592 12.093 75.6844 11.7556 76.1235 11.3211C76.5525 10.8882 76.8889 10.3724 77.112 9.8051C77.5811 8.56143 77.5811 7.18928 77.112 5.94562H77.1141Z" fill="#74531D"/>
<path d="M11.9954 13.7766C11.0956 14.3461 10.0988 14.7449 9.05484 14.9531C8.47282 15.0682 7.88083 15.1252 7.28756 15.1234C6.26408 15.1375 5.24784 14.9496 4.29688 14.5707C3.43721 14.2289 2.65782 13.7122 2.00807 13.0532C1.35831 12.3942 0.852361 11.6074 0.522256 10.7426C0.168485 9.82643 -0.00861795 8.8515 0.00032235 7.86937C-0.00495009 6.90626 0.175833 5.95119 0.532705 5.05676C0.873991 4.19256 1.38191 3.40407 2.02751 2.73626C2.68224 2.06472 3.46255 1.52869 4.32402 1.15864C5.24727 0.763243 6.24269 0.564678 7.24685 0.575624C7.80835 0.571523 8.36919 0.615214 8.9233 0.706224C9.39869 0.786664 9.86557 0.911202 10.3179 1.07819C10.7408 1.23661 11.1477 1.43496 11.533 1.67058C11.9243 1.91325 12.2966 2.18532 12.6468 2.48446L11.081 4.35361C10.8191 4.12855 10.544 3.91922 10.2574 3.72672C9.97932 3.54046 9.68351 3.38228 9.37426 3.25448C9.04689 3.12141 8.70745 3.02029 8.36066 2.95253C7.96053 2.87644 7.55392 2.83971 7.14665 2.84285C6.52582 2.83807 5.91173 2.97191 5.34911 3.23465C4.79975 3.4923 4.30828 3.85871 3.90439 4.3118C3.48914 4.77909 3.16262 5.31836 2.9409 5.90304C2.70389 6.51928 2.58458 7.17457 2.58912 7.83487C2.58247 8.52129 2.69805 9.20341 2.93046 9.84924C3.14361 10.4429 3.47494 10.9871 3.90439 11.4488C4.32822 11.9011 4.84063 12.261 5.40965 12.5062C6.02843 12.7684 6.69502 12.8986 7.3669 12.8886C8.00495 12.8939 8.6396 12.7951 9.24586 12.596C9.78974 12.4206 10.3016 12.1581 10.7616 11.8187V9.17115H7.16856V7.02203H13.151V12.9293C12.7855 13.2378 12.3994 13.5209 11.9954 13.7766Z" fill="#74531D"/>
<path style="mix-blend-mode:multiply" opacity="0.6" d="M11.9954 13.7766C11.0956 14.3461 10.0988 14.7449 9.05484 14.9531C8.47282 15.0682 7.88083 15.1252 7.28756 15.1234C6.26408 15.1375 5.24784 14.9496 4.29688 14.5707C3.43721 14.2289 2.65782 13.7122 2.00807 13.0532C1.35831 12.3942 0.852361 11.6074 0.522256 10.7426C0.168485 9.82643 -0.00861795 8.8515 0.00032235 7.86937C-0.00495009 6.90626 0.175833 5.95119 0.532705 5.05676C0.873991 4.19256 1.38191 3.40407 2.02751 2.73626C2.68224 2.06472 3.46255 1.52869 4.32402 1.15864C5.24727 0.763243 6.24269 0.564678 7.24685 0.575624C7.80835 0.571523 8.36919 0.615214 8.9233 0.706224C9.39869 0.786664 9.86557 0.911202 10.3179 1.07819C10.7408 1.23661 11.1477 1.43496 11.533 1.67058C11.9243 1.91325 12.2966 2.18532 12.6468 2.48446L11.081 4.35361C10.8191 4.12855 10.544 3.91922 10.2574 3.72672C9.97932 3.54046 9.68351 3.38228 9.37426 3.25448C9.04689 3.12141 8.70745 3.02029 8.36066 2.95253C7.96053 2.87644 7.55392 2.83971 7.14665 2.84285C6.52582 2.83807 5.91173 2.97191 5.34911 3.23465C4.79975 3.4923 4.30828 3.85871 3.90439 4.3118C3.48914 4.77909 3.16262 5.31836 2.9409 5.90304C2.70389 6.51928 2.58458 7.17457 2.58912 7.83487C2.58247 8.52129 2.69805 9.20341 2.93046 9.84924C3.14361 10.4429 3.47494 10.9871 3.90439 11.4488C4.32822 11.9011 4.84063 12.261 5.40965 12.5062C6.02843 12.7684 6.69502 12.8986 7.3669 12.8886C8.00495 12.8939 8.6396 12.7951 9.24586 12.596C9.78974 12.4206 10.3016 12.1581 10.7616 11.8187V9.17115H7.16856V7.02203H13.151V12.9293C12.7855 13.2378 12.3994 13.5209 11.9954 13.7766Z" fill="url(#paint0_linear_411_166824)"/>
<path d="M13.1499 12.9283V7.021H7.16748V9.17015H10.7605V14.415C11.1887 14.234 11.6016 14.0187 11.9954 13.7714C12.3989 13.517 12.7847 13.2353 13.1499 12.9283Z" fill="#74531D"/>
<path d="M5.34962 3.23416C5.91225 2.97143 6.52633 2.83758 7.14716 2.84236C7.55444 2.83923 7.96106 2.87598 8.36119 2.95207C8.70798 3.01983 9.04741 3.12095 9.37477 3.25402C9.68402 3.38182 9.97985 3.54001 10.2579 3.72627C10.5446 3.91876 10.8196 4.12806 11.0815 4.35312L12.6473 2.48398C12.2972 2.18483 11.9248 1.91276 11.5335 1.67009C11.1482 1.43447 10.7413 1.23612 10.3184 1.0777C9.86578 0.910582 9.39854 0.786042 8.92278 0.705736C8.37075 0.614975 7.81201 0.571285 7.25259 0.575136C6.24843 0.56419 5.25302 0.762754 4.32977 1.15815C3.46831 1.5282 2.68798 2.06427 2.03325 2.7358C1.38765 3.40361 0.87973 4.19208 0.538444 5.05627C0.256419 5.76467 0.08597 6.5126 0.0332031 7.27334C1.21885 5.29134 3.12352 3.84426 5.34962 3.23416Z" fill="#74531D"/>
<path d="M101.261 11.1397H101.178L95.877 3.36166V15.1345H94.2764V0.570801H95.9399L101.241 8.51654L106.539 0.570801H108.203V15.1325H106.56V3.33875L101.261 11.1397Z" fill="#74531D"/>
<path d="M127.822 2.07198H118.949V7.0478H126.887V8.547H118.949V13.6428H127.93V15.1402H117.31V0.570801H127.826L127.822 2.07198Z" fill="#74531D"/>
<path d="M143.204 11.1397H143.12L137.827 3.36166V15.1345H136.227V0.570801H137.89L143.191 8.51654L148.486 0.570801H150.149V15.1325H148.507V3.33875L143.204 11.1397Z" fill="#74531D"/>
<path d="M167.382 0.833684C167.919 0.984593 168.424 1.23113 168.874 1.56143C169.278 1.86109 169.604 2.25298 169.825 2.70443C170.051 3.17441 170.164 3.69012 170.157 4.21125C170.167 4.64264 170.103 5.07261 169.966 5.48186C169.843 5.82607 169.664 6.1478 169.437 6.43435C169.228 6.70256 168.979 6.93817 168.701 7.13349C168.438 7.31751 168.156 7.4739 167.861 7.6002C168.282 7.72112 168.689 7.88522 169.076 8.08982C169.438 8.27895 169.77 8.52096 170.062 8.80797C170.344 9.09455 170.569 9.4328 170.724 9.8043C170.897 10.2271 170.982 10.6809 170.973 11.1378C170.98 11.7219 170.85 12.2995 170.593 12.8237C170.343 13.3231 169.976 13.755 169.525 14.0829C169.02 14.4428 168.454 14.7069 167.854 14.862C167.15 15.0497 166.424 15.1407 165.695 15.1325H159.243V0.570795H165.425C166.087 0.562922 166.746 0.651481 167.382 0.833684ZM167.587 6.39627C167.895 6.17336 168.141 5.87667 168.304 5.53348C168.467 5.19029 168.541 4.81159 168.52 4.43222C168.532 4.09436 168.463 3.7585 168.319 3.45287C168.174 3.14724 167.959 2.88077 167.69 2.67583C166.989 2.20197 166.15 1.97483 165.305 2.03006H160.891V7.06303H165.181C166.034 7.09997 166.875 6.86661 167.587 6.39627ZM168.377 12.9894C168.686 12.7717 168.934 12.4797 169.101 12.1405C169.267 11.8013 169.345 11.4257 169.329 11.0482C169.343 10.6787 169.261 10.3119 169.09 9.98382C168.92 9.65578 168.667 9.37788 168.356 9.17754C167.479 8.68215 166.477 8.4531 165.473 8.5184H160.891V13.6771H165.764C166.685 13.7282 167.6 13.4876 168.377 12.9894Z" fill="#74531D"/>
<path d="M189.76 2.07198H180.887V7.0478H188.826V8.547H180.887V13.6428H189.865V15.1402H179.245V0.570801H189.76V2.07198Z" fill="#74531D"/>
<path d="M208.175 15.1346L203.957 9.47678H199.8V15.1346H198.162V0.570927H204.418C205.153 0.561216 205.886 0.666629 206.589 0.883348C207.192 1.06915 207.753 1.36995 208.241 1.76916C208.693 2.14138 209.055 2.61005 209.302 3.14075C209.558 3.69905 209.688 4.3074 209.682 4.92197C209.692 5.4799 209.593 6.03435 209.391 6.55453C209.204 7.02209 208.925 7.44709 208.571 7.80416C208.204 8.16719 207.778 8.46602 207.313 8.68811C206.812 8.92841 206.28 9.09706 205.733 9.18912L210.202 15.1327L208.175 15.1346ZM207.05 2.85502C206.244 2.30068 205.276 2.03243 204.3 2.09303H199.8V8.02327H204.279C204.787 8.02782 205.293 7.95717 205.78 7.81369C206.209 7.68892 206.611 7.48759 206.968 7.21937C207.298 6.96592 207.565 6.64003 207.748 6.26688C207.941 5.87023 208.038 5.43353 208.03 4.99243C208.05 4.5839 207.971 4.17661 207.8 3.80495C207.63 3.43329 207.372 3.10816 207.05 2.85694V2.85502Z" fill="#74531D"/>
<defs>
<linearGradient id="paint0_linear_411_166824" x1="11.7701" y1="14.4694" x2="0.382636" y2="0.646222" gradientUnits="userSpaceOnUse">
<stop/>
<stop offset="0.038" stop-color="#2E2E2E"/>
<stop offset="0.082" stop-color="#5F5F5F"/>
<stop offset="0.129" stop-color="#8A8A8A"/>
<stop offset="0.177" stop-color="#AEAEAE"/>
<stop offset="0.228" stop-color="#CBCBCB"/>
<stop offset="0.282" stop-color="#E2E2E2"/>
<stop offset="0.339" stop-color="#F2F2F2"/>
<stop offset="0.404" stop-color="#FCFCFC"/>
<stop offset="0.492" stop-color="white"/>
<stop offset="0.608" stop-color="#C9C9C9"/>
<stop offset="0.872" stop-color="#424242"/>
<stop offset="1"/>
</linearGradient>
</defs>
</svg>
