<svg width="26" height="24" viewBox="0 0 28 25" fill="none" xmlns="http://www.w3.org/2000/svg"><path d="M23.1175 24.3922C24.5749 23.7019 25.0351 21.2474 24.2936 18.5884C23.6289 16.2107 22.0437 13.7562 20.9443 12.4523C19.7682 11.0461 18.8478 10.2279 18.0041 9.53763C17.5183 9.12855 16.8024 8.59164 15.8053 8.10586C15.1661 7.79905 15.4729 6.69966 16.5979 6.29058C17.2882 6.03491 18.1063 5.75367 19.5125 5.47243C21.2511 5.11449 22.913 4.62871 24.1147 4.19406C25.3163 3.75942 26.1856 3.32478 26.6202 2.9924C27.106 2.60889 27.2083 2.19982 27.2083 1.91858C27.2083 1.73961 27.106 1.45837 26.9015 1.25383C26.3901 0.742482 25.5976 0.205569 23.9868 0.0521658C23.2198 -0.0245365 22.3249 0.0265974 21.3278 0.231136C20.1773 0.461242 18.5921 1.17712 17.6717 1.81631C16.5723 2.58332 15.7542 3.70829 15.2172 4.75654C14.757 5.6514 14.5781 6.57182 14.5014 7.1343C14.4502 7.51781 14.3735 7.59451 13.9644 7.51781C12.277 7.211 9.64358 7.51781 7.13798 8.51493C5.52725 9.15412 3.91651 10.1257 2.86825 10.9694C1.92226 11.7364 1.38535 12.4779 0.950702 13.117C0.618328 13.6028 0.541626 14.1653 0.541626 14.8045C0.541626 15.6482 0.874001 16.5175 1.46205 16.901C2.58701 17.6425 4.22331 17.4379 5.14374 16.6709C5.80849 16.1084 6.54994 15.367 7.21469 14.5744C7.7516 13.9352 8.18624 13.296 8.51862 12.9125C9.33677 11.9665 10.6918 10.3813 12.0469 9.48649C12.8139 8.97515 14.3735 8.79617 14.2713 9.43536C14.1946 9.97227 14.2968 10.049 14.2713 10.6114C14.1946 12.1711 14.6036 15.2391 15.2939 17.3101C16.1121 19.739 17.1092 21.3241 18.362 22.6536C19.7427 24.111 21.7113 25.057 23.1175 24.3922Z" fill="white"></path></svg>