<svg width="16" height="16" viewBox="0 0 28 28" fill="none" xmlns="http://www.w3.org/2000/svg"><path d="M11.4733 22.2249C13.8758 22.2249 16.0816 21.424 17.866 20.0753L25.0174 27.2407C25.2562 27.4795 25.5934 27.62 25.9447 27.62C26.7314 27.62 27.2513 27.0159 27.2513 26.2853C27.2513 25.9481 27.1389 25.6109 26.886 25.358L19.7627 18.2347C21.2379 16.4082 22.109 14.1041 22.109 11.5891C22.109 5.74438 17.3321 0.953369 11.4733 0.953369C5.61448 0.953369 0.837524 5.74438 0.837524 11.5891C0.837524 17.4479 5.61448 22.2249 11.4733 22.2249ZM11.4733 20.4406C6.61202 20.4406 2.62186 16.4504 2.62186 11.5891C2.62186 6.74192 6.61202 2.7377 11.4733 2.7377C16.3345 2.7377 20.3247 6.74192 20.3247 11.5891C20.3247 16.4504 16.3345 20.4406 11.4733 20.4406Z" fill="#767676"></path></svg>