<svg width="241" height="16" viewBox="0 0 241 16" fill="none" xmlns="http://www.w3.org/2000/svg">
<path d="M61.2998 13.8223C60.9015 14.1261 60.4738 14.3892 60.0232 14.6078C59.5466 14.8362 59.0437 15.005 58.5259 15.1105C57.9335 15.2296 57.3304 15.2871 56.7262 15.2822C55.7461 15.2924 54.7744 15.1003 53.8718 14.7177C53.0243 14.3589 52.2558 13.8361 51.6107 13.1793C50.9657 12.5165 50.4567 11.7338 50.1123 10.8752C49.3929 9.04612 49.3896 7.01268 50.1029 5.18118C50.4437 4.31255 50.9544 3.52077 51.605 2.85231C52.2556 2.18385 53.033 1.65216 53.8917 1.28841C54.82 0.896654 55.8193 0.701256 56.8267 0.714498C57.4169 0.70987 58.006 0.763887 58.5856 0.875771C59.086 0.974665 59.5746 1.12633 60.0431 1.3282C60.4746 1.51692 60.8855 1.74959 61.2694 2.02255C61.6455 2.29124 62.0015 2.58701 62.3346 2.9075L60.7473 4.73817C60.212 4.2353 59.6099 3.80887 58.958 3.47097C58.2897 3.14053 57.5521 2.97498 56.8068 2.98817C56.1658 2.98199 55.5312 3.11603 54.9474 3.3809C54.3888 3.63404 53.8865 3.99651 53.47 4.44701C53.0487 4.90551 52.721 5.44203 52.5053 6.02635C52.2735 6.65079 52.1575 7.31233 52.1631 7.97847C52.1581 8.64762 52.274 9.31218 52.5053 9.94005C52.7205 10.5305 53.0482 11.0736 53.47 11.5392C53.8843 11.9948 54.387 12.3612 54.9474 12.6158C55.5312 12.8807 56.1658 13.0148 56.8068 13.0086C57.5731 13.029 58.3326 12.8596 59.0177 12.5153C59.6832 12.1507 60.2984 11.7007 60.8477 11.1769L62.435 12.7866C62.0868 13.1636 61.707 13.5101 61.2998 13.8223Z" fill="white"/>
<path d="M78.677 10.7945C78.3263 11.6626 77.807 12.4525 77.1493 13.1184C76.455 13.8171 75.6274 14.3687 74.7156 14.7404C73.8039 15.1122 72.8267 15.2964 71.8423 15.2821C70.8221 15.2946 69.81 15.0994 68.8675 14.7082C68.0044 14.3505 67.2217 13.8233 66.5655 13.1578C65.9094 12.4922 65.3932 11.7018 65.0473 10.8332C64.3247 9.02474 64.3247 7.00733 65.0473 5.19884C65.3985 4.33073 65.9181 3.54088 66.576 2.87492C67.27 2.17595 68.0977 1.62418 69.0095 1.2526C69.9213 0.881023 70.8987 0.697252 71.8831 0.712278C72.9033 0.699237 73.9155 0.894522 74.8578 1.28619C75.7209 1.6437 76.5036 2.1708 77.1596 2.83638C77.8156 3.50195 78.3316 4.29246 78.677 5.16113C79.401 6.96898 79.401 8.98661 78.677 10.7945ZM76.2704 6.07644C76.0475 5.48522 75.7132 4.94235 75.2857 4.47727C74.8578 4.01668 74.3415 3.64727 73.7675 3.39121C73.1611 3.11859 72.5028 2.98104 71.8381 2.98803C71.1774 2.98061 70.5228 3.11451 69.9181 3.38076C69.3518 3.63063 68.8423 3.99337 68.4207 4.44687C67.9972 4.9092 67.6662 5.44851 67.4455 6.0356C66.9768 7.28753 66.9768 8.66701 67.4455 9.91894C67.6683 10.5108 68.003 11.0541 68.4312 11.5192C68.8589 11.9795 69.3749 12.3489 69.9484 12.6052C70.8384 13.0095 71.8325 13.1251 72.7915 12.9359C73.7504 12.7466 74.6262 12.2618 75.2962 11.5496C75.7192 11.0866 76.0499 10.547 76.2704 9.95978C76.7392 8.70785 76.7392 7.32837 76.2704 6.07644Z" fill="white"/>
<path d="M89.6534 11.5798H89.5729L85.1709 4.98189V15.0421H82.7183V0.955078H85.3508L89.6335 7.61477L93.9151 0.955078H96.5488V15.04H94.0962V4.93893L89.6534 11.5798Z" fill="white"/>
<path d="M6.09178 11.4037L3.0239 1.86084L2.73198 0.957031H0.0585938L4.96593 15.1477H7.09731L7.20195 14.8262L6.09283 11.3869L6.09178 11.4037Z" fill="white"/>
<path d="M2.7334 0.957031L3.02532 1.86085L2.7334 0.957031Z" fill="#737373"/>
<path d="M9.574 0.90918H11.6834L15.1729 11.4868L18.5599 0.950025H21.1758L16.2277 15.2632H14.0732L10.5848 5.05117L7.0952 15.2632H4.94916L0 0.950025H2.69747L6.08446 11.4868L9.574 0.90918Z" fill="white"/>
<path style="mix-blend-mode:multiply" opacity="0.8" d="M9.574 0.90918H11.6834L15.1729 11.4868L18.5599 0.950025H21.1758L16.2277 15.2632H14.0732L10.5848 5.05117L7.0952 15.2632H4.94916L0 0.950025H2.69747L6.08446 11.4868L9.574 0.90918Z" fill="url(#paint0_linear_411_166882)"/>
<path d="M6.08446 11.4855L2.99044 1.85986L2.69641 0.94873H0L4.94916 15.2609H7.09938L7.21031 14.9363L6.09072 11.4677L6.08446 11.4855Z" fill="white"/>
<path d="M2.69727 0.94873L2.99126 1.85986L2.69727 0.94873Z" fill="#737373"/>
<path style="mix-blend-mode:multiply" opacity="0.8" d="M18.5589 0.94873L15.1719 11.4855L16.3741 14.8368L21.1747 0.951895L18.5589 0.94873Z" fill="url(#paint1_linear_411_166882)"/>
<path d="M38.0522 0.952148H40.5049V12.8042H47.9046V15.0381H38.0522V0.952148Z" fill="white"/>
<path d="M111.09 3.17875H103.123V6.8034H110.185V9.03412H103.123V12.8044H111.19V15.0393H100.669V0.943848H111.09V3.17875Z" fill="white"/>
<path d="M34.5006 3.17875H26.5348V6.8034H33.5955V9.03412H26.5348V12.8044H34.601V15.0393H24.0801V0.943848H34.5006V3.17875Z" fill="white"/>
<path d="M132.126 11.2879H132.042L126.744 3.50834V15.2825H125.143V0.711914H126.806L132.105 8.65729L137.405 0.711914H139.069V15.2749H137.419V3.47788L132.126 11.2879Z" fill="white"/>
<path d="M158.157 2.21921H149.283V7.18911H157.223V8.68824H149.283V13.7857H158.262V15.283H147.64V0.712402H158.157V2.21921Z" fill="white"/>
<path d="M173.816 11.2884H173.732L168.434 3.50883V15.283H166.833V0.712402H168.496L173.795 8.65778L179.095 0.712402H180.759V15.2754H179.116V3.47837L173.816 11.2884Z" fill="white"/>
<path d="M197.466 0.979351C198.004 1.13128 198.51 1.37837 198.96 1.70892C199.363 2.0091 199.689 2.40084 199.912 2.85187C200.137 3.32183 200.25 3.83752 200.243 4.35862C200.254 4.79 200.189 5.22003 200.053 5.62923C199.93 5.97335 199.752 6.29508 199.525 6.58169C199.315 6.84903 199.067 7.08445 198.789 7.28074C198.525 7.46382 198.244 7.62077 197.95 7.74935C198.369 7.87044 198.775 8.03385 199.162 8.23702C199.524 8.42585 199.857 8.66794 200.148 8.9552C200.431 9.24189 200.657 9.58083 200.812 9.95334C200.985 10.3763 201.069 10.83 201.061 11.2868C201.067 11.8708 200.937 12.448 200.681 12.9726C200.431 13.4718 200.064 13.9032 199.611 14.2298C199.107 14.5896 198.541 14.8543 197.942 15.0109C197.238 15.1983 196.512 15.2893 195.784 15.2813H189.33V0.712637H195.513C196.174 0.707176 196.831 0.797022 197.466 0.979351ZM197.672 6.54355C197.98 6.32102 198.226 6.02442 198.389 5.68115C198.552 5.33788 198.626 4.95901 198.604 4.57959C198.617 4.2419 198.548 3.90617 198.404 3.60057C198.26 3.29496 198.045 3.02841 197.776 2.82327C197.075 2.34944 196.236 2.12231 195.392 2.17753H190.976V7.21028H195.268C196.119 7.24786 196.961 7.01444 197.672 6.54355ZM198.462 13.1383C198.77 12.9199 199.018 12.6276 199.185 12.2882C199.351 11.9488 199.429 11.573 199.413 11.1954C199.427 10.8257 199.345 10.4587 199.174 10.1306C199.003 9.80261 198.75 9.52486 198.439 9.32475C197.563 8.82934 196.561 8.60028 195.557 8.66564H190.974V13.826H195.847C196.769 13.8778 197.684 13.6372 198.462 13.1383Z" fill="white"/>
<path d="M220.143 2.21921H211.268V7.18911H219.206V8.68824H211.268V13.7857H220.245V15.283H209.633V0.712402H220.15L220.143 2.21921Z" fill="white"/>
<path d="M238.833 15.2827L234.614 9.62319H230.459V15.2827H228.817V0.712037H235.073C235.808 0.702357 236.541 0.807765 237.244 1.02444C237.847 1.21089 238.408 1.51093 238.898 1.90836C239.348 2.2827 239.71 2.75158 239.958 3.28175C240.215 3.83999 240.345 4.44833 240.339 5.06288C240.348 5.62081 240.25 6.17526 240.048 6.69538C239.861 7.16291 239.582 7.58789 239.227 7.94494C238.86 8.30795 238.435 8.60735 237.969 8.83078C237.469 9.07066 236.937 9.23867 236.39 9.32985L240.858 15.2751L238.833 15.2827ZM237.709 3.00178C236.903 2.44746 235.935 2.17917 234.959 2.23977H230.459V8.16974H234.939C235.447 8.17441 235.952 8.10382 236.439 7.96023C236.868 7.83625 237.27 7.63481 237.627 7.36588C237.956 7.11202 238.224 6.78628 238.409 6.41343C238.6 6.01633 238.696 5.57987 238.689 5.13904C238.709 4.72923 238.63 4.3206 238.459 3.94784C238.288 3.57507 238.029 3.24921 237.705 2.99794L237.709 3.00178Z" fill="white"/>
<defs>
<linearGradient id="paint0_linear_411_166882" x1="9.12676" y1="7.39722" x2="4.34432" y2="14.6857" gradientUnits="userSpaceOnUse">
<stop stop-color="white"/>
<stop offset="0.27" stop-color="#B3B3B3"/>
<stop offset="0.629" stop-color="#535353"/>
<stop offset="0.881" stop-color="#171717"/>
<stop offset="1"/>
</linearGradient>
<linearGradient id="paint1_linear_411_166882" x1="18.5395" y1="5.30958" x2="10.3176" y2="9.01179" gradientUnits="userSpaceOnUse">
<stop stop-color="white"/>
<stop offset="0.335" stop-color="#B9B9B9"/>
<stop offset="0.647" stop-color="#808080"/>
<stop offset="0.876" stop-color="#5C5C5C"/>
<stop offset="0.999" stop-color="#4F4F4F"/>
</linearGradient>
</defs>
</svg>
