<svg width="223" height="15" viewBox="0 0 223 15" fill="none" xmlns="http://www.w3.org/2000/svg">
<path d="M20.7921 0.343262V14.5198H18.3237V0.343262H20.7921Z" fill="white"/>
<path d="M53.4521 0.343262H56.1458L50.2581 14.621H48.0729L42.1841 0.343262H44.9369L49.206 11.2387L53.4521 0.343262Z" fill="white"/>
<path d="M89.8154 14.5198L86.3245 9.57856H83.1989V14.5198H80.7305V0.343249H87.049C87.7924 0.334703 88.5327 0.441355 89.2436 0.659442C89.8505 0.842868 90.4147 1.14566 90.9032 1.55009C91.3554 1.93575 91.7123 2.42098 91.9458 2.96775C92.3885 4.07357 92.4258 5.30055 92.0511 6.43127C91.892 6.88036 91.6561 7.29836 91.354 7.66657C91.0532 8.02776 90.694 8.33593 90.2914 8.57829C89.8645 8.8344 89.4037 9.02886 88.9224 9.1559L92.7461 14.5219L89.8154 14.5198ZM89.0024 3.19121C88.3655 2.75501 87.6013 2.54396 86.831 2.59147H83.1979V7.37145H86.8521C87.6166 7.41203 88.371 7.18136 88.9824 6.72005C89.241 6.51014 89.4472 6.24283 89.5846 5.93932C89.7221 5.63581 89.7871 5.30443 89.7744 4.97144C89.7967 4.63461 89.7383 4.29733 89.604 3.98767C89.4698 3.67801 89.2635 3.40493 89.0024 3.19121Z" fill="white"/>
<path d="M3.15291 4.77186C3.27212 5.00272 3.45012 5.19796 3.66891 5.33786C3.989 5.54716 4.33673 5.71071 4.70201 5.82376C5.14079 5.97273 5.6982 6.12768 6.37428 6.28859C7.04541 6.4565 7.70497 6.66775 8.34881 6.92101C8.86878 7.11972 9.35157 7.40478 9.77681 7.76421C10.1445 8.08117 10.4385 8.47471 10.6382 8.9173C10.8441 9.40655 10.9442 9.93389 10.932 10.4646C10.9431 11.0848 10.8165 11.6996 10.5613 12.2649C10.3212 12.7812 9.96851 13.2371 9.52931 13.5993C9.0599 13.9787 8.51969 14.2606 7.94021 14.4288C7.27796 14.6233 6.59057 14.7185 5.90041 14.7113C4.83167 14.7151 3.7709 14.527 2.76855 14.1558C1.74477 13.7687 0.804874 13.1884 0 12.4462L1.49536 10.667C2.11936 11.2217 2.82026 11.6833 3.57626 12.0372C4.32814 12.3648 5.14156 12.5269 5.96147 12.5126C6.60657 12.5468 7.24611 12.3772 7.78965 12.0277C8.00407 11.8833 8.17856 11.687 8.29694 11.457C8.41531 11.2271 8.47371 10.9709 8.46675 10.7123C8.47044 10.4766 8.42563 10.2427 8.33512 10.0251C8.22665 9.79868 8.05844 9.60623 7.84862 9.46857C7.54719 9.26755 7.2203 9.1077 6.87662 8.99321C6.34778 8.811 5.81002 8.65584 5.26541 8.52838C4.58222 8.37441 3.90909 8.1787 3.24981 7.94235C2.71725 7.75548 2.21914 7.48197 1.7755 7.13285C1.38429 6.81832 1.07196 6.41658 0.863503 5.95972C0.639302 5.42913 0.531577 4.85655 0.547591 4.28069C0.539761 3.69851 0.663214 3.12205 0.908784 2.59425C1.14446 2.09483 1.48246 1.65061 1.9008 1.29043C2.34589 0.91103 2.86214 0.624372 3.41933 0.447224C4.04546 0.246663 4.69966 0.147723 5.35703 0.154191C6.30954 0.140227 7.25705 0.294369 8.15611 0.609534C9.00029 0.922298 9.78836 1.3697 10.4897 1.93442L9.15549 3.81479C8.56421 3.37452 7.91946 3.01118 7.23675 2.7334C6.62625 2.48824 5.9748 2.36125 5.31699 2.35921C4.71079 2.32166 4.11047 2.49685 3.61942 2.8546C3.43174 2.99395 3.27918 3.17523 3.17387 3.38402C3.06856 3.59282 3.01343 3.82334 3.01286 4.05723C3.00753 4.30276 3.0553 4.54655 3.15291 4.77186Z" fill="white"/>
<path style="mix-blend-mode:multiply" opacity="0.65" d="M3.15291 4.77186C3.27212 5.00272 3.45012 5.19796 3.66891 5.33786C3.989 5.54716 4.33673 5.71071 4.70201 5.82376C5.14079 5.97273 5.6982 6.12768 6.37428 6.28859C7.04541 6.4565 7.70497 6.66775 8.34881 6.92101C8.86878 7.11972 9.35157 7.40478 9.77681 7.76421C10.1445 8.08117 10.4385 8.47471 10.6382 8.9173C10.8441 9.40655 10.9442 9.93389 10.932 10.4646C10.9431 11.0848 10.8165 11.6996 10.5613 12.2649C10.3212 12.7812 9.96851 13.2371 9.52931 13.5993C9.0599 13.9787 8.51969 14.2606 7.94021 14.4288C7.27796 14.6233 6.59057 14.7185 5.90041 14.7113C4.83167 14.7151 3.7709 14.527 2.76855 14.1558C1.74477 13.7687 0.804874 13.1884 0 12.4462L1.49536 10.667C2.11936 11.2217 2.82026 11.6833 3.57626 12.0372C4.32814 12.3648 5.14156 12.5269 5.96147 12.5126C6.60657 12.5468 7.24611 12.3772 7.78965 12.0277C8.00407 11.8833 8.17856 11.687 8.29694 11.457C8.41531 11.2271 8.47371 10.9709 8.46675 10.7123C8.47044 10.4766 8.42563 10.2427 8.33512 10.0251C8.22665 9.79868 8.05844 9.60623 7.84862 9.46857C7.54719 9.26755 7.2203 9.1077 6.87662 8.99321C6.34778 8.811 5.81002 8.65584 5.26541 8.52838C4.58222 8.37441 3.90909 8.1787 3.24981 7.94235C2.71725 7.75548 2.21914 7.48197 1.7755 7.13285C1.38429 6.81832 1.07196 6.41658 0.863503 5.95972C0.639302 5.42913 0.531577 4.85655 0.547591 4.28069C0.539761 3.69851 0.663214 3.12205 0.908784 2.59425C1.14446 2.09483 1.48246 1.65061 1.9008 1.29043C2.34589 0.91103 2.86214 0.624372 3.41933 0.447224C4.04546 0.246663 4.69966 0.147723 5.35703 0.154191C6.30954 0.140227 7.25705 0.294369 8.15611 0.609534C9.00029 0.922298 9.78836 1.3697 10.4897 1.93442L9.15549 3.81479C8.56421 3.37452 7.91946 3.01118 7.23675 2.7334C6.62625 2.48824 5.9748 2.36125 5.31699 2.35921C4.71079 2.32166 4.11047 2.49685 3.61942 2.8546C3.43174 2.99395 3.27918 3.17523 3.17387 3.38402C3.06856 3.59282 3.01343 3.82334 3.01286 4.05723C3.00753 4.30276 3.0553 4.54655 3.15291 4.77186Z" fill="url(#paint0_linear_411_166848)"/>
<path d="M4.22927 2.51361C4.57783 2.39739 4.94345 2.34074 5.3108 2.34603C5.96861 2.34807 6.62005 2.47505 7.23056 2.72021C7.91327 2.99799 8.55798 3.36137 9.14927 3.80164L10.4835 1.92124C9.78213 1.35652 8.99407 0.909114 8.14989 0.596351C7.25082 0.281186 6.30332 0.127043 5.35081 0.141007C4.69343 0.134539 4.03927 0.23348 3.41314 0.434041C2.85595 0.611188 2.33967 0.897846 1.89458 1.27724C1.47624 1.63743 1.13827 2.08165 0.902592 2.58106C0.657021 3.10887 0.533536 3.68532 0.541366 4.2675C0.542114 4.50164 0.558679 4.73546 0.59089 4.96737C0.986655 4.32165 1.51626 3.76845 2.14393 3.34514C2.77161 2.92183 3.48272 2.63827 4.22927 2.51361Z" fill="white"/>
<path d="M3.57626 12.023C2.82026 11.6691 2.11936 11.2076 1.49536 10.6528L0 12.432C0.804874 13.1742 1.74477 13.7546 2.76855 14.1416C3.7709 14.5128 4.83167 14.7009 5.90041 14.6971C6.59057 14.7044 7.27796 14.6092 7.94021 14.4146C8.51969 14.2465 9.0599 13.9645 9.52931 13.5851C10.2355 13.007 10.7072 12.1913 10.8562 11.2905C9.90843 12.3034 7.62431 12.4678 6.31322 12.4731C6.19843 12.4815 6.08468 12.4931 5.96147 12.4931C5.14195 12.5091 4.32857 12.3488 3.57626 12.023Z" fill="white"/>
<path d="M3.57626 12.023C2.82026 11.6691 2.11936 11.2076 1.49536 10.6528L0 12.432C0.804874 13.1742 1.74477 13.7546 2.76855 14.1416C3.7709 14.5128 4.83167 14.7009 5.90041 14.6971C6.59057 14.7044 7.27796 14.6092 7.94021 14.4146C8.51969 14.2465 9.0599 13.9645 9.52931 13.5851C10.2355 13.007 10.7072 12.1913 10.8562 11.2905C9.90843 12.3034 7.62431 12.4678 6.31322 12.4731C6.19843 12.4815 6.08468 12.4931 5.96147 12.4931C5.14195 12.5091 4.32857 12.3488 3.57626 12.023Z" fill="white"/>
<path d="M28.8965 0.343262H31.3649V12.2769H38.8112V14.524H28.8965V0.343262Z" fill="white"/>
<path d="M44.9338 0.343262H42.1821L48.0709 14.621H50.2561L50.3983 14.2774L49.2041 11.2387L44.9338 0.343262Z" fill="white"/>
<path d="M73.3534 2.59166H65.3405V6.2375H72.4435V8.48256H65.3405V12.277H73.4492V14.5242H62.8721V0.347656H73.3534V2.59166Z" fill="white"/>
<path d="M113.27 10.7105H113.188L107.886 2.93176V14.7057H106.286V0.140625H107.949L113.25 8.08714L118.55 0.140625H120.213V14.7038H118.571V2.90885L113.27 10.7105Z" fill="white"/>
<path d="M139.835 1.64195H130.961V6.61826H138.9V8.11761H130.961V13.2139H139.939V14.7114H129.318V0.140625H139.835V1.64195Z" fill="white"/>
<path d="M155.219 10.7105H155.135L149.834 2.93176V14.7057H148.233V0.140625H149.897L155.198 8.08714L160.497 0.140625H162.161V14.7038H160.518V2.90885L155.219 10.7105Z" fill="white"/>
<path d="M179.398 0.403534C179.935 0.554458 180.441 0.801023 180.89 1.13135C181.294 1.43104 181.62 1.82297 181.842 2.27446C182.067 2.74449 182.181 3.26025 182.173 3.78143C182.184 4.21287 182.12 4.64288 181.983 5.05216C181.86 5.3964 181.681 5.71815 181.454 6.00475C181.244 6.27298 180.996 6.50862 180.717 6.70396C180.454 6.88801 180.173 7.04441 179.878 7.17071C180.298 7.29163 180.705 7.45575 181.092 7.66038C181.455 7.84953 181.787 8.09157 182.078 8.3786C182.361 8.66521 182.586 9.0035 182.741 9.37503C182.914 9.79787 182.999 10.2517 182.99 10.7086C182.997 11.2928 182.867 11.8704 182.609 12.3947C182.359 12.8941 181.993 13.3261 181.541 13.654C181.037 14.014 180.47 14.2781 179.87 14.4333C179.166 14.621 178.44 14.712 177.712 14.7038H171.259V0.140619H177.441C178.103 0.132745 178.762 0.221313 179.398 0.403534ZM179.604 5.96667C179.911 5.74373 180.158 5.44702 180.321 5.10379C180.484 4.76057 180.558 4.38183 180.536 4.00242C180.549 3.66453 180.48 3.32863 180.335 3.02297C180.191 2.71731 179.975 2.45082 179.706 2.24586C179.005 1.77196 178.166 1.54479 177.321 1.60002H172.907V6.63349H177.198C178.048 6.66962 178.889 6.43628 179.6 5.96667H179.604ZM180.394 12.5605C180.702 12.3427 180.951 12.0507 181.117 11.7115C181.284 11.3723 181.362 10.9966 181.345 10.6191C181.36 10.2495 181.277 9.88264 181.107 9.55457C180.936 9.22649 180.683 8.94857 180.373 8.7482C179.496 8.25277 178.494 8.0237 177.489 8.089H172.907V13.2482H177.78C178.702 13.2994 179.616 13.0587 180.394 12.5605Z" fill="white"/>
<path d="M201.779 1.64195H192.905V6.61826H200.845V8.11761H192.905V13.2139H201.884V14.7114H191.263V0.140625H201.779V1.64195Z" fill="white"/>
<path d="M220.195 14.7058L215.977 9.04747H211.82V14.7058H210.177V0.140751H216.434C217.17 0.131039 217.903 0.236463 218.606 0.453203C219.209 0.63902 219.77 0.939849 220.258 1.3391C220.709 1.71135 221.072 2.18007 221.318 2.71083C221.575 3.26918 221.705 3.87759 221.699 4.49222C221.708 5.0502 221.61 5.60471 221.408 6.12494C221.221 6.59255 220.942 7.01759 220.587 7.37469C220.22 7.73776 219.795 8.03662 219.329 8.25873C218.829 8.49907 218.297 8.66775 217.749 8.75979L222.219 14.7039L220.195 14.7058ZM219.07 2.42507C218.264 1.87067 217.296 1.6024 216.32 1.66301H211.82V7.59383H216.299C216.807 7.59837 217.313 7.52772 217.801 7.38423C218.229 7.25944 218.632 7.05809 218.988 6.78985C219.318 6.53637 219.585 6.21045 219.769 5.83726C219.962 5.44057 220.058 5.00383 220.051 4.56269C220.07 4.1541 219.992 3.74676 219.821 3.37504C219.65 3.00331 219.393 2.67812 219.07 2.42698V2.42507Z" fill="white"/>
<defs>
<linearGradient id="paint0_linear_411_166848" x1="11.1298" y1="13.0811" x2="-2.01677" y2="5.65456" gradientUnits="userSpaceOnUse">
<stop/>
<stop offset="0.038" stop-color="#2E2E2E"/>
<stop offset="0.082" stop-color="#5F5F5F"/>
<stop offset="0.129" stop-color="#8A8A8A"/>
<stop offset="0.177" stop-color="#AEAEAE"/>
<stop offset="0.228" stop-color="#CBCBCB"/>
<stop offset="0.282" stop-color="#E2E2E2"/>
<stop offset="0.339" stop-color="#F2F2F2"/>
<stop offset="0.404" stop-color="#FCFCFC"/>
<stop offset="0.492" stop-color="white"/>
<stop offset="0.608" stop-color="#C9C9C9"/>
<stop offset="0.872" stop-color="#424242"/>
<stop offset="1"/>
</linearGradient>
</defs>
</svg>
