<svg xmlns="http://www.w3.org/2000/svg" viewBox="0 0 720 720" width="18" height="18" fill="#767676"><g><g><path d="m177.4 629.7c-38 0-70.7-11.4-97.7-34.1c-5.8-4.8-6.5-13.5-1.7-19.2c4.9-5.8 13.5-6.5 19.3-1.7c74.4 62.7 193.8 6.4 280.9-51.9c97.4-65.2 177.2-147.7 178-148.5c5.2-5.4 13.8-5.6 19.3-0.4c5.4 5.3 5.6 13.9 0.3 19.3c-3.3 3.5-82.3 85.2-182.1 152.1c-59.3 39.7-113.5 65.7-161.2 77.3q-29.1 7.1-55.1 7.1z"></path><path d="m231 556.2c-5.4 0-10.5-3.2-12.6-8.5c-2.9-7 0.5-15 7.4-17.8c17.2-7 35.3-15.8 53.8-26c6.6-3.6 14.9-1.2 18.5 5.4c3.7 6.5 1.3 14.8-5.3 18.5c-19.4 10.7-38.5 19.9-56.7 27.3c-1.6 0.7-3.4 1.1-5.1 1.1z"></path><path d="m343 494.5c-4.4 0-8.7-2.1-11.3-6c-4.3-6.3-2.6-14.8 3.6-19c102-69.1 192-162.5 229-206.7c4.9-5.8 13.5-6.5 19.2-1.7c5.8 4.8 6.6 13.4 1.7 19.2c-37.9 45.3-130.1 141-234.6 211.8c-2.3 1.6-5 2.4-7.6 2.4z"></path><path d="m66.5 531.9q-7.8 0-15.3-0.5c-24.1-1.7-40-10.3-47.2-25.6c-10.3-21.8-0.7-52.7 29.2-94.5c4.4-6.1 12.9-7.5 19.1-3.1c6.1 4.4 7.5 12.9 3.1 19c-32.6 45.6-28.7 62.8-26.7 67c3.3 7.1 15.1 9.3 24.4 9.9c146 10.2 325.5-150.3 395.9-219.7c5.4-5.3 14-5.3 19.3 0.1c5.3 5.4 5.2 14-0.1 19.3c-41.4 40.8-106.1 99.4-179.6 147.1c-82.9 53.8-157.6 81-222.1 81z"></path></g><path d="m646.2 522.2c-10 0-20-3.5-28-10.3l-45.8-38.4c-5.8-4.8-6.5-13.4-1.7-19.2c4.8-5.8 13.5-6.5 19.2-1.7l45.8 38.4c4.8 4 11.1 5 16.8 2.6c5.8-2.4 9.5-7.5 10.1-13.7l30.1-343.8c0.4-5.4-1.7-10.5-5.8-14c-4.2-3.5-9.6-4.7-14.8-3.3l-333.4 89.4c-6 1.6-10.4 6.2-11.7 12.2c-1.4 6.1 0.7 12.1 5.4 16.1l46 38.6c5.8 4.8 6.5 13.5 1.7 19.2c-4.9 5.8-13.5 6.5-19.2 1.7l-46-38.6c-12.5-10.5-18.1-26.9-14.6-42.9c3.6-15.9 15.6-28.5 31.4-32.7l333.3-89.3c13.8-3.7 28.5-0.4 39.4 8.7c10.9 9.2 16.7 23.1 15.4 37.3l-30 343.8c-1.5 16.3-11.7 30.3-26.8 36.5c-5.4 2.3-11.1 3.4-16.8 3.4z"></path></g></svg>