<svg width="18" height="18" viewBox="0 0 33 33" fill="none" xmlns="http://www.w3.org/2000/svg"><path d="M32.1096 14.493L19.0429 1.42633C18.4829 0.866331 17.7629 0.572998 16.9629 0.572998C16.1629 0.572998 15.4429 0.866331 14.8829 1.42633L1.84291 14.493C1.84291 14.493 1.84291 14.493 1.84291 14.5197C0.696243 15.6663 0.696243 17.533 1.84291 18.6797C2.37624 19.213 3.06958 19.5063 3.78958 19.533C3.81624 19.533 3.84291 19.533 3.86958 19.533H4.40291V29.133C4.40291 31.0263 5.94958 32.573 7.84291 32.573H12.9629C13.4696 32.573 13.8962 32.1463 13.8962 31.6397V24.093C13.8962 23.213 14.5896 22.5197 15.4696 22.5197H18.4829C19.3629 22.5197 20.0562 23.213 20.0562 24.093V31.613C20.0562 32.1197 20.4829 32.5463 20.9896 32.5463H26.1096C28.0029 32.5463 29.5496 30.9997 29.5496 29.1063V19.5063H30.0296C30.8029 19.5063 31.5496 19.213 32.1096 18.653C33.2562 17.5063 33.2562 15.6397 32.1096 14.493ZM30.7762 17.3197C30.5629 17.533 30.2962 17.6397 30.0296 17.6397H28.6162C28.1096 17.6397 27.6829 18.0663 27.6829 18.573V29.1063C27.6829 29.9863 26.9896 30.6797 26.1096 30.6797H21.9229V24.093C21.9229 22.1997 20.3762 20.653 18.4829 20.653H15.4696C13.5762 20.653 12.0296 22.1997 12.0296 24.093V30.6797H7.84291C6.96291 30.6797 6.26958 29.9863 6.26958 29.1063V18.573C6.26958 18.0663 5.84291 17.6397 5.33624 17.6397H3.92291C3.89624 17.6397 3.89624 17.6397 3.86958 17.6397C3.60291 17.6397 3.33624 17.533 3.12291 17.3197C2.69624 16.893 2.69624 16.2263 3.12291 15.7997L16.1629 2.75966C16.4029 2.54633 16.6696 2.43966 16.9629 2.43966C17.2562 2.43966 17.5229 2.54633 17.7096 2.75966L30.7496 15.7997C31.2029 16.2263 31.2029 16.9197 30.7762 17.3197Z" fill="#007AD0"></path></svg>