<svg width="18" height="18" viewBox="0 0 8 26" fill="none" xmlns="http://www.w3.org/2000/svg"><path d="M3.96057 6.69946C5.70372 6.69946 7.11084 5.29234 7.11084 3.54919C7.11084 1.80605 5.70372 0.398926 3.96057 0.398926C2.21742 0.398926 0.810303 1.80605 0.810303 3.54919C0.810303 5.29234 2.21742 6.69946 3.96057 6.69946ZM3.96057 1.97406C4.82164 1.97406 5.53571 2.68812 5.53571 3.54919C5.53571 4.41027 4.82164 5.12433 3.96057 5.12433C3.0995 5.12433 2.38544 4.41027 2.38544 3.54919C2.38544 2.68812 3.0995 1.97406 3.96057 1.97406Z" fill="#767676"></path><path d="M3.96057 9.84961C2.21742 9.84961 0.810303 11.2567 0.810303 12.9999C0.810303 14.743 2.21742 16.1501 3.96057 16.1501C5.70372 16.1501 7.11084 14.743 7.11084 12.9999C7.11084 11.2567 5.70372 9.84961 3.96057 9.84961ZM3.96057 14.575C3.0995 14.575 2.38544 13.861 2.38544 12.9999C2.38544 12.1388 3.0995 11.4247 3.96057 11.4247C4.82164 11.4247 5.53571 12.1388 5.53571 12.9999C5.53571 13.861 4.82164 14.575 3.96057 14.575Z" fill="#767676"></path><path d="M3.96057 19.3005C2.21742 19.3005 0.810303 20.7077 0.810303 22.4508C0.810303 24.194 2.21742 25.6011 3.96057 25.6011C5.70372 25.6011 7.11084 24.194 7.11084 22.4508C7.11084 20.7077 5.70372 19.3005 3.96057 19.3005ZM3.96057 24.0259C3.0995 24.0259 2.38544 23.3119 2.38544 22.4508C2.38544 21.5897 3.0995 20.8757 3.96057 20.8757C4.82164 20.8757 5.53571 21.5897 5.53571 22.4508C5.53571 23.3119 4.82164 24.0259 3.96057 24.0259Z" fill="#767676"></path></svg>