<svg width="18" height="18" viewBox="0 0 28 28" fill="none" xmlns="http://www.w3.org/2000/svg"><path fill-rule="evenodd" clip-rule="evenodd" d="M1.4927 8.85798C1.60151 8.85798 1.7133 8.88026 1.82212 8.92631L12.8733 13.6961C13.1789 13.8283 13.3772 14.1283 13.3757 14.4596L13.3473 26.5838C13.3459 27.0606 12.9509 27.4126 12.5126 27.4126C12.4038 27.4112 12.292 27.3904 12.1832 27.3428L1.13198 22.5731C0.826405 22.4409 0.628156 22.1408 0.629647 21.8096L0.657968 9.68686C0.659459 9.20854 1.05446 8.85649 1.4927 8.85798ZM1.90704 10.3196L1.88021 21.5392L12.0997 25.9494L12.125 14.7314L1.90704 10.3196ZM13.8739 0.746094C13.9887 0.746094 14.1034 0.768375 14.2122 0.81591L25.8627 5.93474C26.523 6.22589 26.526 7.15875 25.8672 7.45287L14.2406 12.6252C14.1317 12.6727 14.017 12.6965 13.9022 12.698C13.7874 12.698 13.6712 12.6742 13.5638 12.6267L1.91339 7.50931C1.25157 7.21817 1.25008 6.28531 1.90892 5.99119L13.537 0.817395C13.6443 0.769861 13.7591 0.746094 13.8739 0.746094ZM13.8767 2.02947L3.27559 6.74723L13.899 11.413L24.5001 6.69673L13.8767 2.02947ZM26.4331 8.85798C26.8729 8.85649 27.2664 9.20854 27.2679 9.68686L27.2962 21.8096C27.2977 22.1408 27.0994 22.4409 26.7953 22.5731L15.7441 27.3428C15.6338 27.3904 15.522 27.4112 15.4132 27.4126C14.9735 27.4126 14.58 27.0606 14.5785 26.5838L14.5502 14.4596C14.5502 14.1283 14.7469 13.8283 15.0525 13.6961L26.1037 8.92631C26.2125 8.88026 26.3243 8.85798 26.4331 8.85798ZM26.0204 10.3196L15.801 14.7314L15.8278 25.9494L26.0473 21.5392L26.0204 10.3196Z" fill="#767676"></path></svg>