<svg width="18" height="18" viewBox="0 0 31 31" fill="none" xmlns="http://www.w3.org/2000/svg"><path d="M4.98891 26.4236C4.82514 26.4261 4.66893 26.4929 4.55401 26.6096C4.43909 26.7264 4.37469 26.8836 4.37471 27.0474V29.2643C4.37471 29.5901 4.50413 29.9025 4.7345 30.1329C4.96487 30.3633 5.27732 30.4927 5.60312 30.4927H20.0561C20.3819 30.4927 20.6943 30.3633 20.9247 30.1329C21.1551 29.9025 21.2845 29.5901 21.2845 29.2643V17.4792C21.4745 17.1191 21.5888 16.7239 21.6204 16.318C21.6382 15.7743 21.4728 15.2403 21.1509 14.8018C20.829 14.3632 20.3691 14.0455 19.845 13.8996C19.5269 13.8311 19.1978 13.8316 18.8799 13.9011C18.562 13.9706 18.2628 14.1076 18.0024 14.3027L17.9064 14.3698L17.8392 14.2739C17.6806 13.9842 17.4597 13.7333 17.1926 13.5392C16.9254 13.345 16.6186 13.2125 16.2941 13.151C15.7552 13.0808 15.2084 13.1941 14.7418 13.4726C14.2751 13.7512 13.916 14.1788 13.7221 14.6865C13.5687 15.1401 13.5167 15.6219 13.5697 16.0978C13.6228 16.5737 13.7796 17.0322 14.0292 17.4409V17.4984L13.962 17.6232H6.75475L7.04266 17.4121L18.559 8.63087L15.8143 5.03202C15.7166 4.90307 15.5941 4.79501 15.454 4.71424C15.3139 4.63347 15.159 4.58162 14.9985 4.56177C14.8397 4.53776 14.6777 4.54667 14.5225 4.58794C14.3673 4.62922 14.2223 4.70198 14.0964 4.8017L11.3805 6.86504L11.4956 6.53874C11.6679 6.02294 11.6946 5.4696 11.5727 4.93963C11.4508 4.40965 11.185 3.92358 10.8047 3.5349C10.3796 3.18915 9.8457 3.0055 9.29794 3.01667C8.86193 3.02446 8.43188 3.11931 8.03305 3.29566C7.63422 3.472 7.27465 3.72627 6.97548 4.04354C6.01579 5.0992 6.10216 6.6635 6.2845 7.74795C6.2845 8.00707 6.37087 8.25659 6.41886 8.49651L6.47644 8.74603L6.20772 8.64047C5.98699 8.5253 5.75667 8.41014 5.51675 8.30458C4.76857 7.93342 3.95172 7.72104 3.11751 7.68078C2.64736 7.67426 2.18277 7.783 1.76435 7.99747C1.12488 8.2975 0.618016 8.82213 0.340197 9.47155C0.0623786 10.121 0.0329918 10.8499 0.257628 11.5195C0.531375 11.9921 0.931451 12.3789 1.41291 12.6366C1.89438 12.8943 2.43815 13.0126 2.98316 12.9783H3.31905L0.59352 15.08C0.335813 15.2777 0.166901 15.5695 0.123737 15.8914C0.0805732 16.2133 0.16667 16.5392 0.363194 16.7979L3.11751 20.4063L4.37471 19.4466V22.5944C4.39354 22.7453 4.46683 22.8841 4.58082 22.9848C4.69481 23.0854 4.84164 23.141 4.99371 23.141C5.14578 23.141 5.29261 23.0854 5.4066 22.9848C5.52059 22.8841 5.59389 22.7453 5.61271 22.5944V18.8804H12.2058V29.2547H5.61271V27.0474C5.61271 26.8819 5.54699 26.7233 5.43001 26.6063C5.31302 26.4893 5.15436 26.4236 4.98891 26.4236ZM20.0369 29.2547H13.415V18.8804H20.0369V29.2547ZM26.0734 19.8977C25.9385 19.8977 25.8091 19.9513 25.7137 20.0466C25.6183 20.142 25.5647 20.2714 25.5647 20.4063V21.6155C25.5547 21.6888 25.5605 21.7634 25.5817 21.8343C25.6029 21.9052 25.639 21.9708 25.6876 22.0265C25.7363 22.0823 25.7963 22.127 25.8637 22.1576C25.931 22.1883 26.0042 22.2041 26.0782 22.2041C26.1522 22.2041 26.2253 22.1883 26.2927 22.1576C26.36 22.127 26.4201 22.0823 26.4687 22.0265C26.5173 21.9708 26.5535 21.9052 26.5747 21.8343C26.5959 21.7634 26.6016 21.6888 26.5916 21.6155V20.4063C26.5891 20.2705 26.5334 20.1412 26.4365 20.046C26.3395 19.9509 26.2092 19.8976 26.0734 19.8977ZM27.4361 18.5349C27.312 18.5519 27.1983 18.6133 27.116 18.7077C27.0336 18.8021 26.9883 18.9231 26.9883 19.0483C26.9883 19.1736 27.0336 19.2946 27.116 19.389C27.1983 19.4834 27.312 19.5448 27.4361 19.5618H28.6453C28.7187 19.5718 28.7933 19.566 28.8642 19.5448C28.9351 19.5236 29.0006 19.4875 29.0564 19.4389C29.1121 19.3902 29.1568 19.3302 29.1875 19.2628C29.2181 19.1955 29.2339 19.1223 29.2339 19.0483C29.2339 18.9743 29.2181 18.9012 29.1875 18.8338C29.1568 18.7665 29.1121 18.7064 29.0564 18.6578C29.0006 18.6092 28.9351 18.573 28.8642 18.5518C28.7933 18.5306 28.7187 18.5249 28.6453 18.5349H27.4361ZM23.511 18.5349C23.4377 18.5249 23.3631 18.5306 23.2922 18.5518C23.2213 18.573 23.1557 18.6092 23.1 18.6578C23.0442 18.7064 22.9995 18.7665 22.9689 18.8338C22.9382 18.9012 22.9224 18.9743 22.9224 19.0483C22.9224 19.1223 22.9382 19.1955 22.9689 19.2628C22.9995 19.3302 23.0442 19.3902 23.1 19.4389C23.1557 19.4875 23.2213 19.5236 23.2922 19.5448C23.3631 19.566 23.4377 19.5718 23.511 19.5618H24.7106C24.7839 19.5718 24.8585 19.566 24.9294 19.5448C25.0003 19.5236 25.0659 19.4875 25.1216 19.4389C25.1774 19.3902 25.2221 19.3302 25.2527 19.2628C25.2833 19.1955 25.2992 19.1223 25.2992 19.0483C25.2992 18.9743 25.2833 18.9012 25.2527 18.8338C25.2221 18.7665 25.1774 18.7064 25.1216 18.6578C25.0659 18.6092 25.0003 18.573 24.9294 18.5518C24.8585 18.5306 24.7839 18.5249 24.7106 18.5349H23.511ZM3.35744 18.6693L1.36127 16.0589L1.45724 15.9821L7.59928 11.3276L9.57625 13.9188L3.35744 18.6693ZM26.083 15.9629C25.9481 15.9629 25.8187 16.0165 25.7233 16.1119C25.6279 16.2073 25.5743 16.3367 25.5743 16.4716V17.6808C25.5643 17.7541 25.5701 17.8287 25.5913 17.8996C25.6125 17.9705 25.6486 18.036 25.6972 18.0918C25.7459 18.1476 25.8059 18.1923 25.8733 18.2229C25.9406 18.2535 26.0138 18.2694 26.0878 18.2694C26.1618 18.2694 26.2349 18.2535 26.3023 18.2229C26.3696 18.1923 26.4297 18.1476 26.4783 18.0918C26.5269 18.036 26.5631 17.9705 26.5843 17.8996C26.6055 17.8287 26.6112 17.7541 26.6012 17.6808V16.4716C26.6 16.4035 26.5853 16.3364 26.5581 16.274C26.5309 16.2116 26.4917 16.1551 26.4427 16.1079C26.3936 16.0607 26.3358 16.0236 26.2724 15.9987C26.2091 15.9738 26.1414 15.9617 26.0734 15.9629H26.083ZM19.5762 17.6328H15.5167V17.5752C15.3632 17.2777 15.2096 16.9706 15.0465 16.6155C14.8078 16.1425 14.7631 15.5951 14.9217 15.0896C15.0263 14.8671 15.1963 14.6818 15.4089 14.5583C15.6215 14.4349 15.8667 14.3792 16.1118 14.3986C16.7164 14.4946 17.0139 15.3583 17.0714 15.6078C17.1027 15.716 17.1631 15.8135 17.246 15.8897C17.329 15.9658 17.4313 16.0177 17.5417 16.0397C17.6507 16.0639 17.7643 16.0569 17.8695 16.0196C17.9747 15.9822 18.0673 15.916 18.1367 15.8286C18.4246 15.5023 18.9716 14.9648 19.5187 15.0992C19.7643 15.1721 19.9796 15.323 20.1319 15.529C20.2843 15.735 20.3655 15.985 20.3632 16.2412C20.3402 16.5039 20.2657 16.7595 20.1438 16.9933C20.0219 17.2272 19.8552 17.4347 19.653 17.604L19.5762 17.6328ZM24.4707 13.1606C24.5669 13.2723 24.6985 13.3475 24.8435 13.3737C24.9885 13.3999 25.1381 13.3755 25.2672 13.3046C26.5811 12.5281 27.8043 11.6075 28.9141 10.5599C29.2481 10.2643 29.5196 9.90482 29.7124 9.50264C29.9053 9.10046 30.0156 8.66372 30.0369 8.2182C30.0426 7.64962 29.8562 7.09576 29.5079 6.64637C29.1595 6.19697 28.6696 5.87837 28.1175 5.7422C27.7819 5.67725 27.4362 5.68656 27.1047 5.76945C26.7731 5.85235 26.4637 6.00683 26.1981 6.22204L26.0926 6.29882L26.0254 6.19325C25.8526 5.89583 25.6156 5.64071 25.3317 5.44647C25.0478 5.25223 24.7241 5.12376 24.3843 5.07041C23.825 5.0149 23.2631 5.14695 22.7871 5.44578C22.311 5.74461 21.9479 6.19324 21.7548 6.72108C21.6195 7.14669 21.5701 7.59496 21.6097 8.0398C21.6492 8.48464 21.7768 8.91718 21.9851 9.31225C22.6646 10.6802 23.4951 11.9678 24.4611 13.151L24.4707 13.1606ZM10.5935 13.1606L8.61655 10.5599L14.8642 5.76139L16.8507 8.37175L16.7547 8.43893L10.5935 13.1606ZM25.0945 11.9514L25.0273 11.865C24.2902 10.8885 23.6476 9.84411 23.1079 8.74603C22.8364 8.24314 22.7743 7.65338 22.9352 7.10496C23.0382 6.84822 23.2201 6.63085 23.4547 6.48423C23.6893 6.33761 23.9644 6.26932 24.2404 6.28922C24.9025 6.37559 25.2 7.24891 25.3344 7.56561C25.3681 7.6715 25.4294 7.76647 25.5121 7.84071C25.5948 7.91494 25.6958 7.96575 25.8047 7.98788C25.9159 8.00648 26.0301 7.99592 26.1361 7.95724C26.242 7.91855 26.3362 7.85306 26.4093 7.76715C26.7548 7.32569 27.321 6.80745 27.868 6.94181C28.1404 7.01324 28.3818 7.17212 28.5552 7.39403C28.7286 7.61594 28.8243 7.88863 28.8277 8.17022C28.7714 8.72542 28.5033 9.23756 28.0791 9.60016C27.1914 10.4395 26.2276 11.1945 25.2 11.8554L25.0945 11.9514ZM3.1463 11.7595C2.8161 11.7981 2.48152 11.7503 2.17534 11.6208C1.86916 11.4912 1.60187 11.2844 1.39966 11.0205C1.31618 10.6391 1.36588 10.2406 1.5405 9.89131C1.71512 9.54207 2.00412 9.26319 2.35936 9.10112C2.601 8.98241 2.86753 8.92318 3.13671 8.92838C3.805 8.96933 4.458 9.14564 5.05609 9.44661C5.6024 9.69074 6.1259 9.983 6.62039 10.3199L6.76435 10.4255L6.6108 10.5215C5.86137 10.9926 5.05519 11.3666 4.21156 11.6347C3.86193 11.7319 3.4993 11.774 3.13671 11.7595H3.1463ZM7.94477 9.45621L7.87759 9.29306C7.68549 8.72447 7.54418 8.13997 7.45532 7.54642C7.32682 7.10196 7.29374 6.63537 7.35824 6.17723C7.42275 5.71909 7.58338 5.27976 7.82961 4.88807C8.01293 4.6941 8.23279 4.53828 8.47655 4.42958C8.7203 4.32088 8.98314 4.26144 9.24995 4.25467C9.50591 4.24896 9.75624 4.33015 9.96012 4.485C10.5743 4.99364 10.3632 6.45237 9.78738 7.31609C9.30387 8.06188 8.72652 8.74243 8.06953 9.34104L7.94477 9.45621ZM19.3939 3.91878C19.259 3.91878 19.1296 3.97237 19.0342 4.06776C18.9389 4.16314 18.8853 4.29252 18.8853 4.42742V5.48308C18.9023 5.60717 18.9636 5.72091 19.058 5.80325C19.1524 5.88559 19.2734 5.93095 19.3987 5.93095C19.524 5.93095 19.645 5.88559 19.7394 5.80325C19.8338 5.72091 19.8951 5.60717 19.9121 5.48308V4.42742C19.9096 4.29164 19.8539 4.16228 19.757 4.06716C19.6601 3.97204 19.5297 3.91876 19.3939 3.91878ZM20.5839 2.72876C20.5106 2.71871 20.436 2.72448 20.3651 2.74568C20.2942 2.76688 20.2287 2.80302 20.1729 2.85167C20.1171 2.90031 20.0724 2.96033 20.0418 3.02769C20.0112 3.09506 19.9953 3.1682 19.9953 3.2422C19.9953 3.3162 20.0112 3.38934 20.0418 3.4567C20.0724 3.52406 20.1171 3.58408 20.1729 3.63273C20.2287 3.68137 20.2942 3.71751 20.3651 3.73871C20.436 3.75991 20.5106 3.76568 20.5839 3.75563H21.63C21.7033 3.76568 21.7779 3.75991 21.8488 3.73871C21.9197 3.71751 21.9852 3.68137 22.041 3.63273C22.0968 3.58408 22.1415 3.52406 22.1721 3.4567C22.2027 3.38934 22.2186 3.3162 22.2186 3.2422C22.2186 3.1682 22.2027 3.09506 22.1721 3.02769C22.1415 2.96033 22.0968 2.90031 22.041 2.85167C21.9852 2.80302 21.9197 2.76688 21.8488 2.74568C21.7779 2.72448 21.7033 2.71871 21.63 2.72876H20.5839ZM17.1578 2.72876C17.0337 2.74577 16.92 2.80714 16.8376 2.90153C16.7553 2.99592 16.7099 3.11694 16.7099 3.2422C16.7099 3.36745 16.7553 3.48847 16.8376 3.58286C16.92 3.67725 17.0337 3.73863 17.1578 3.75563H18.2135C18.3376 3.73863 18.4513 3.67725 18.5337 3.58286C18.616 3.48847 18.6614 3.36745 18.6614 3.2422C18.6614 3.11694 18.616 2.99592 18.5337 2.90153C18.4513 2.80714 18.3376 2.74577 18.2135 2.72876H17.1578ZM19.3939 0.492676C19.2581 0.495191 19.1288 0.550898 19.0336 0.647815C18.9385 0.744731 18.8852 0.875112 18.8853 1.01091V2.05698C18.8752 2.13029 18.881 2.2049 18.9022 2.2758C18.9234 2.3467 18.9595 2.41223 19.0082 2.468C19.0568 2.52376 19.1168 2.56846 19.1842 2.59909C19.2516 2.62972 19.3247 2.64557 19.3987 2.64557C19.4727 2.64557 19.5458 2.62972 19.6132 2.59909C19.6806 2.56846 19.7406 2.52376 19.7892 2.468C19.8379 2.41223 19.874 2.3467 19.8952 2.2758C19.9164 2.2049 19.9222 2.13029 19.9121 2.05698V1.01091C19.9121 0.873466 19.8575 0.741651 19.7604 0.644463C19.6632 0.547275 19.5313 0.492676 19.3939 0.492676Z" fill="#767676"></path></svg>